G04 #@! TF.GenerationSoftware,KiCad,Pcbnew,(5.1.4)-1*
G04 #@! TF.CreationDate,2020-05-14T00:19:35-04:00*
G04 #@! TF.ProjectId,Crossover circuit,43726f73-736f-4766-9572-206369726375,rev?*
G04 #@! TF.SameCoordinates,Original*
G04 #@! TF.FileFunction,Legend,Top*
G04 #@! TF.FilePolarity,Positive*
%FSLAX46Y46*%
G04 Gerber Fmt 4.6, Leading zero omitted, Abs format (unit mm)*
G04 Created by KiCad (PCBNEW (5.1.4)-1) date 2020-05-14 00:19:35*
%MOMM*%
%LPD*%
G04 APERTURE LIST*
%ADD10C,0.150000*%
%ADD11C,0.120000*%
%ADD12C,0.100000*%
G04 APERTURE END LIST*
D10*
X83955714Y-138422619D02*
X84003333Y-138375000D01*
X84098571Y-138327380D01*
X84336666Y-138327380D01*
X84431904Y-138375000D01*
X84479523Y-138422619D01*
X84527142Y-138517857D01*
X84527142Y-138613095D01*
X84479523Y-138755952D01*
X83908095Y-139327380D01*
X84527142Y-139327380D01*
X84955714Y-138946428D02*
X85717619Y-138946428D01*
X86098571Y-138660714D02*
X86289047Y-139327380D01*
X86479523Y-138851190D01*
X86670000Y-139327380D01*
X86860476Y-138660714D01*
X87670000Y-139327380D02*
X87670000Y-138803571D01*
X87622380Y-138708333D01*
X87527142Y-138660714D01*
X87336666Y-138660714D01*
X87241428Y-138708333D01*
X87670000Y-139279761D02*
X87574761Y-139327380D01*
X87336666Y-139327380D01*
X87241428Y-139279761D01*
X87193809Y-139184523D01*
X87193809Y-139089285D01*
X87241428Y-138994047D01*
X87336666Y-138946428D01*
X87574761Y-138946428D01*
X87670000Y-138898809D01*
X88050952Y-138660714D02*
X88289047Y-139327380D01*
X88527142Y-138660714D02*
X88289047Y-139327380D01*
X88193809Y-139565476D01*
X88146190Y-139613095D01*
X88050952Y-139660714D01*
X90098571Y-139279761D02*
X90003333Y-139327380D01*
X89812857Y-139327380D01*
X89717619Y-139279761D01*
X89670000Y-139232142D01*
X89622380Y-139136904D01*
X89622380Y-138851190D01*
X89670000Y-138755952D01*
X89717619Y-138708333D01*
X89812857Y-138660714D01*
X90003333Y-138660714D01*
X90098571Y-138708333D01*
X90527142Y-139327380D02*
X90527142Y-138660714D01*
X90527142Y-138851190D02*
X90574761Y-138755952D01*
X90622380Y-138708333D01*
X90717619Y-138660714D01*
X90812857Y-138660714D01*
X91289047Y-139327380D02*
X91193809Y-139279761D01*
X91146190Y-139232142D01*
X91098571Y-139136904D01*
X91098571Y-138851190D01*
X91146190Y-138755952D01*
X91193809Y-138708333D01*
X91289047Y-138660714D01*
X91431904Y-138660714D01*
X91527142Y-138708333D01*
X91574761Y-138755952D01*
X91622380Y-138851190D01*
X91622380Y-139136904D01*
X91574761Y-139232142D01*
X91527142Y-139279761D01*
X91431904Y-139327380D01*
X91289047Y-139327380D01*
X92003333Y-139279761D02*
X92098571Y-139327380D01*
X92289047Y-139327380D01*
X92384285Y-139279761D01*
X92431904Y-139184523D01*
X92431904Y-139136904D01*
X92384285Y-139041666D01*
X92289047Y-138994047D01*
X92146190Y-138994047D01*
X92050952Y-138946428D01*
X92003333Y-138851190D01*
X92003333Y-138803571D01*
X92050952Y-138708333D01*
X92146190Y-138660714D01*
X92289047Y-138660714D01*
X92384285Y-138708333D01*
X92812857Y-139279761D02*
X92908095Y-139327380D01*
X93098571Y-139327380D01*
X93193809Y-139279761D01*
X93241428Y-139184523D01*
X93241428Y-139136904D01*
X93193809Y-139041666D01*
X93098571Y-138994047D01*
X92955714Y-138994047D01*
X92860476Y-138946428D01*
X92812857Y-138851190D01*
X92812857Y-138803571D01*
X92860476Y-138708333D01*
X92955714Y-138660714D01*
X93098571Y-138660714D01*
X93193809Y-138708333D01*
X93812857Y-139327380D02*
X93717619Y-139279761D01*
X93670000Y-139232142D01*
X93622380Y-139136904D01*
X93622380Y-138851190D01*
X93670000Y-138755952D01*
X93717619Y-138708333D01*
X93812857Y-138660714D01*
X93955714Y-138660714D01*
X94050952Y-138708333D01*
X94098571Y-138755952D01*
X94146190Y-138851190D01*
X94146190Y-139136904D01*
X94098571Y-139232142D01*
X94050952Y-139279761D01*
X93955714Y-139327380D01*
X93812857Y-139327380D01*
X94479523Y-138660714D02*
X94717619Y-139327380D01*
X94955714Y-138660714D01*
X95717619Y-139279761D02*
X95622380Y-139327380D01*
X95431904Y-139327380D01*
X95336666Y-139279761D01*
X95289047Y-139184523D01*
X95289047Y-138803571D01*
X95336666Y-138708333D01*
X95431904Y-138660714D01*
X95622380Y-138660714D01*
X95717619Y-138708333D01*
X95765238Y-138803571D01*
X95765238Y-138898809D01*
X95289047Y-138994047D01*
X96193809Y-139327380D02*
X96193809Y-138660714D01*
X96193809Y-138851190D02*
X96241428Y-138755952D01*
X96289047Y-138708333D01*
X96384285Y-138660714D01*
X96479523Y-138660714D01*
X82527142Y-140882142D02*
X82479523Y-140929761D01*
X82336666Y-140977380D01*
X82241428Y-140977380D01*
X82098571Y-140929761D01*
X82003333Y-140834523D01*
X81955714Y-140739285D01*
X81908095Y-140548809D01*
X81908095Y-140405952D01*
X81955714Y-140215476D01*
X82003333Y-140120238D01*
X82098571Y-140025000D01*
X82241428Y-139977380D01*
X82336666Y-139977380D01*
X82479523Y-140025000D01*
X82527142Y-140072619D01*
X82955714Y-140977380D02*
X82955714Y-140310714D01*
X82955714Y-140501190D02*
X83003333Y-140405952D01*
X83050952Y-140358333D01*
X83146190Y-140310714D01*
X83241428Y-140310714D01*
X83955714Y-140929761D02*
X83860476Y-140977380D01*
X83670000Y-140977380D01*
X83574761Y-140929761D01*
X83527142Y-140834523D01*
X83527142Y-140453571D01*
X83574761Y-140358333D01*
X83670000Y-140310714D01*
X83860476Y-140310714D01*
X83955714Y-140358333D01*
X84003333Y-140453571D01*
X84003333Y-140548809D01*
X83527142Y-140644047D01*
X84860476Y-140977380D02*
X84860476Y-140453571D01*
X84812857Y-140358333D01*
X84717619Y-140310714D01*
X84527142Y-140310714D01*
X84431904Y-140358333D01*
X84860476Y-140929761D02*
X84765238Y-140977380D01*
X84527142Y-140977380D01*
X84431904Y-140929761D01*
X84384285Y-140834523D01*
X84384285Y-140739285D01*
X84431904Y-140644047D01*
X84527142Y-140596428D01*
X84765238Y-140596428D01*
X84860476Y-140548809D01*
X85193809Y-140310714D02*
X85574761Y-140310714D01*
X85336666Y-139977380D02*
X85336666Y-140834523D01*
X85384285Y-140929761D01*
X85479523Y-140977380D01*
X85574761Y-140977380D01*
X86289047Y-140929761D02*
X86193809Y-140977380D01*
X86003333Y-140977380D01*
X85908095Y-140929761D01*
X85860476Y-140834523D01*
X85860476Y-140453571D01*
X85908095Y-140358333D01*
X86003333Y-140310714D01*
X86193809Y-140310714D01*
X86289047Y-140358333D01*
X86336666Y-140453571D01*
X86336666Y-140548809D01*
X85860476Y-140644047D01*
X87193809Y-140977380D02*
X87193809Y-139977380D01*
X87193809Y-140929761D02*
X87098571Y-140977380D01*
X86908095Y-140977380D01*
X86812857Y-140929761D01*
X86765238Y-140882142D01*
X86717619Y-140786904D01*
X86717619Y-140501190D01*
X86765238Y-140405952D01*
X86812857Y-140358333D01*
X86908095Y-140310714D01*
X87098571Y-140310714D01*
X87193809Y-140358333D01*
X88431904Y-140977380D02*
X88431904Y-139977380D01*
X88431904Y-140358333D02*
X88527142Y-140310714D01*
X88717619Y-140310714D01*
X88812857Y-140358333D01*
X88860476Y-140405952D01*
X88908095Y-140501190D01*
X88908095Y-140786904D01*
X88860476Y-140882142D01*
X88812857Y-140929761D01*
X88717619Y-140977380D01*
X88527142Y-140977380D01*
X88431904Y-140929761D01*
X89241428Y-140310714D02*
X89479523Y-140977380D01*
X89717619Y-140310714D02*
X89479523Y-140977380D01*
X89384285Y-141215476D01*
X89336666Y-141263095D01*
X89241428Y-141310714D01*
X90860476Y-140977380D02*
X90860476Y-139977380D01*
X91193809Y-140691666D01*
X91527142Y-139977380D01*
X91527142Y-140977380D01*
X92003333Y-140977380D02*
X92003333Y-140310714D01*
X92003333Y-139977380D02*
X91955714Y-140025000D01*
X92003333Y-140072619D01*
X92050952Y-140025000D01*
X92003333Y-139977380D01*
X92003333Y-140072619D01*
X92479523Y-140310714D02*
X92479523Y-140977380D01*
X92479523Y-140405952D02*
X92527142Y-140358333D01*
X92622380Y-140310714D01*
X92765238Y-140310714D01*
X92860476Y-140358333D01*
X92908095Y-140453571D01*
X92908095Y-140977380D01*
X93812857Y-140310714D02*
X93812857Y-141120238D01*
X93765238Y-141215476D01*
X93717619Y-141263095D01*
X93622380Y-141310714D01*
X93479523Y-141310714D01*
X93384285Y-141263095D01*
X93812857Y-140929761D02*
X93717619Y-140977380D01*
X93527142Y-140977380D01*
X93431904Y-140929761D01*
X93384285Y-140882142D01*
X93336666Y-140786904D01*
X93336666Y-140501190D01*
X93384285Y-140405952D01*
X93431904Y-140358333D01*
X93527142Y-140310714D01*
X93717619Y-140310714D01*
X93812857Y-140358333D01*
X94193809Y-140310714D02*
X94717619Y-140310714D01*
X94193809Y-140977380D01*
X94717619Y-140977380D01*
X95479523Y-140929761D02*
X95384285Y-140977380D01*
X95193809Y-140977380D01*
X95098571Y-140929761D01*
X95050952Y-140834523D01*
X95050952Y-140453571D01*
X95098571Y-140358333D01*
X95193809Y-140310714D01*
X95384285Y-140310714D01*
X95479523Y-140358333D01*
X95527142Y-140453571D01*
X95527142Y-140548809D01*
X95050952Y-140644047D01*
X97003333Y-139977380D02*
X97003333Y-140691666D01*
X96955714Y-140834523D01*
X96860476Y-140929761D01*
X96717619Y-140977380D01*
X96622380Y-140977380D01*
X97479523Y-140977380D02*
X97479523Y-140310714D01*
X97479523Y-139977380D02*
X97431904Y-140025000D01*
X97479523Y-140072619D01*
X97527142Y-140025000D01*
X97479523Y-139977380D01*
X97479523Y-140072619D01*
X97955714Y-140310714D02*
X97955714Y-140977380D01*
X97955714Y-140405952D02*
X98003333Y-140358333D01*
X98098571Y-140310714D01*
X98241428Y-140310714D01*
X98336666Y-140358333D01*
X98384285Y-140453571D01*
X98384285Y-140977380D01*
X66857619Y-88027380D02*
X66857619Y-87455952D01*
X66857619Y-87741666D02*
X67857619Y-87741666D01*
X67714761Y-87646428D01*
X67619523Y-87551190D01*
X67571904Y-87455952D01*
X67857619Y-88646428D02*
X67857619Y-88741666D01*
X67810000Y-88836904D01*
X67762380Y-88884523D01*
X67667142Y-88932142D01*
X67476666Y-88979761D01*
X67238571Y-88979761D01*
X67048095Y-88932142D01*
X66952857Y-88884523D01*
X66905238Y-88836904D01*
X66857619Y-88741666D01*
X66857619Y-88646428D01*
X66905238Y-88551190D01*
X66952857Y-88503571D01*
X67048095Y-88455952D01*
X67238571Y-88408333D01*
X67476666Y-88408333D01*
X67667142Y-88455952D01*
X67762380Y-88503571D01*
X67810000Y-88551190D01*
X67857619Y-88646428D01*
X67762380Y-89360714D02*
X67810000Y-89408333D01*
X67857619Y-89503571D01*
X67857619Y-89741666D01*
X67810000Y-89836904D01*
X67762380Y-89884523D01*
X67667142Y-89932142D01*
X67571904Y-89932142D01*
X67429047Y-89884523D01*
X66857619Y-89313095D01*
X66857619Y-89932142D01*
X66952857Y-90360714D02*
X66905238Y-90408333D01*
X66857619Y-90360714D01*
X66905238Y-90313095D01*
X66952857Y-90360714D01*
X66857619Y-90360714D01*
X67429047Y-90979761D02*
X67476666Y-90884523D01*
X67524285Y-90836904D01*
X67619523Y-90789285D01*
X67667142Y-90789285D01*
X67762380Y-90836904D01*
X67810000Y-90884523D01*
X67857619Y-90979761D01*
X67857619Y-91170238D01*
X67810000Y-91265476D01*
X67762380Y-91313095D01*
X67667142Y-91360714D01*
X67619523Y-91360714D01*
X67524285Y-91313095D01*
X67476666Y-91265476D01*
X67429047Y-91170238D01*
X67429047Y-90979761D01*
X67381428Y-90884523D01*
X67333809Y-90836904D01*
X67238571Y-90789285D01*
X67048095Y-90789285D01*
X66952857Y-90836904D01*
X66905238Y-90884523D01*
X66857619Y-90979761D01*
X66857619Y-91170238D01*
X66905238Y-91265476D01*
X66952857Y-91313095D01*
X67048095Y-91360714D01*
X67238571Y-91360714D01*
X67333809Y-91313095D01*
X67381428Y-91265476D01*
X67429047Y-91170238D01*
X67857619Y-91694047D02*
X67857619Y-92360714D01*
X66857619Y-91932142D01*
X67857619Y-92932142D02*
X67857619Y-93027380D01*
X67810000Y-93122619D01*
X67762380Y-93170238D01*
X67667142Y-93217857D01*
X67476666Y-93265476D01*
X67238571Y-93265476D01*
X67048095Y-93217857D01*
X66952857Y-93170238D01*
X66905238Y-93122619D01*
X66857619Y-93027380D01*
X66857619Y-92932142D01*
X66905238Y-92836904D01*
X66952857Y-92789285D01*
X67048095Y-92741666D01*
X67238571Y-92694047D01*
X67476666Y-92694047D01*
X67667142Y-92741666D01*
X67762380Y-92789285D01*
X67810000Y-92836904D01*
X67857619Y-92932142D01*
X66857619Y-94455952D02*
X67524285Y-94455952D01*
X67429047Y-94455952D02*
X67476666Y-94503571D01*
X67524285Y-94598809D01*
X67524285Y-94741666D01*
X67476666Y-94836904D01*
X67381428Y-94884523D01*
X66857619Y-94884523D01*
X67381428Y-94884523D02*
X67476666Y-94932142D01*
X67524285Y-95027380D01*
X67524285Y-95170238D01*
X67476666Y-95265476D01*
X67381428Y-95313095D01*
X66857619Y-95313095D01*
X66857619Y-95789285D02*
X67524285Y-95789285D01*
X67429047Y-95789285D02*
X67476666Y-95836904D01*
X67524285Y-95932142D01*
X67524285Y-96075000D01*
X67476666Y-96170238D01*
X67381428Y-96217857D01*
X66857619Y-96217857D01*
X67381428Y-96217857D02*
X67476666Y-96265476D01*
X67524285Y-96360714D01*
X67524285Y-96503571D01*
X67476666Y-96598809D01*
X67381428Y-96646428D01*
X66857619Y-96646428D01*
D11*
X68580000Y-40640000D02*
X68580000Y-143510000D01*
X77470000Y-40640000D02*
X67993579Y-40640000D01*
X77470000Y-143510000D02*
X67993579Y-143510000D01*
X68580000Y-143510000D02*
X67993579Y-142383496D01*
X68580000Y-143510000D02*
X69166421Y-142383496D01*
X68580000Y-40640000D02*
X67993579Y-41766504D01*
X68580000Y-40640000D02*
X69166421Y-41766504D01*
D10*
X135652380Y-33472380D02*
X135080952Y-33472380D01*
X135366666Y-33472380D02*
X135366666Y-32472380D01*
X135271428Y-32615238D01*
X135176190Y-32710476D01*
X135080952Y-32758095D01*
X136033333Y-32567619D02*
X136080952Y-32520000D01*
X136176190Y-32472380D01*
X136414285Y-32472380D01*
X136509523Y-32520000D01*
X136557142Y-32567619D01*
X136604761Y-32662857D01*
X136604761Y-32758095D01*
X136557142Y-32900952D01*
X135985714Y-33472380D01*
X136604761Y-33472380D01*
X137461904Y-32805714D02*
X137461904Y-33472380D01*
X137223809Y-32424761D02*
X136985714Y-33139047D01*
X137604761Y-33139047D01*
X137985714Y-33377142D02*
X138033333Y-33424761D01*
X137985714Y-33472380D01*
X137938095Y-33424761D01*
X137985714Y-33377142D01*
X137985714Y-33472380D01*
X138890476Y-32805714D02*
X138890476Y-33472380D01*
X138652380Y-32424761D02*
X138414285Y-33139047D01*
X139033333Y-33139047D01*
X139842857Y-32472380D02*
X139652380Y-32472380D01*
X139557142Y-32520000D01*
X139509523Y-32567619D01*
X139414285Y-32710476D01*
X139366666Y-32900952D01*
X139366666Y-33281904D01*
X139414285Y-33377142D01*
X139461904Y-33424761D01*
X139557142Y-33472380D01*
X139747619Y-33472380D01*
X139842857Y-33424761D01*
X139890476Y-33377142D01*
X139938095Y-33281904D01*
X139938095Y-33043809D01*
X139890476Y-32948571D01*
X139842857Y-32900952D01*
X139747619Y-32853333D01*
X139557142Y-32853333D01*
X139461904Y-32900952D01*
X139414285Y-32948571D01*
X139366666Y-33043809D01*
X140557142Y-32472380D02*
X140652380Y-32472380D01*
X140747619Y-32520000D01*
X140795238Y-32567619D01*
X140842857Y-32662857D01*
X140890476Y-32853333D01*
X140890476Y-33091428D01*
X140842857Y-33281904D01*
X140795238Y-33377142D01*
X140747619Y-33424761D01*
X140652380Y-33472380D01*
X140557142Y-33472380D01*
X140461904Y-33424761D01*
X140414285Y-33377142D01*
X140366666Y-33281904D01*
X140319047Y-33091428D01*
X140319047Y-32853333D01*
X140366666Y-32662857D01*
X140414285Y-32567619D01*
X140461904Y-32520000D01*
X140557142Y-32472380D01*
X142080952Y-33472380D02*
X142080952Y-32805714D01*
X142080952Y-32900952D02*
X142128571Y-32853333D01*
X142223809Y-32805714D01*
X142366666Y-32805714D01*
X142461904Y-32853333D01*
X142509523Y-32948571D01*
X142509523Y-33472380D01*
X142509523Y-32948571D02*
X142557142Y-32853333D01*
X142652380Y-32805714D01*
X142795238Y-32805714D01*
X142890476Y-32853333D01*
X142938095Y-32948571D01*
X142938095Y-33472380D01*
X143414285Y-33472380D02*
X143414285Y-32805714D01*
X143414285Y-32900952D02*
X143461904Y-32853333D01*
X143557142Y-32805714D01*
X143700000Y-32805714D01*
X143795238Y-32853333D01*
X143842857Y-32948571D01*
X143842857Y-33472380D01*
X143842857Y-32948571D02*
X143890476Y-32853333D01*
X143985714Y-32805714D01*
X144128571Y-32805714D01*
X144223809Y-32853333D01*
X144271428Y-32948571D01*
X144271428Y-33472380D01*
D11*
X201930000Y-34290000D02*
X77470000Y-34290000D01*
X201930000Y-40640000D02*
X201930000Y-33703579D01*
X77470000Y-40640000D02*
X77470000Y-33703579D01*
X77470000Y-34290000D02*
X78596504Y-33703579D01*
X77470000Y-34290000D02*
X78596504Y-34876421D01*
X201930000Y-34290000D02*
X200803496Y-33703579D01*
X201930000Y-34290000D02*
X200803496Y-34876421D01*
X111506000Y-64770000D02*
G75*
G03X111506000Y-64770000I-11176000J0D01*
G01*
X122174000Y-64770000D02*
G75*
G03X122174000Y-64770000I-21844000J0D01*
G01*
D12*
X193000000Y-127020000D02*
X193000000Y-127520000D01*
X193000000Y-127020000D02*
X193450000Y-127020000D01*
X193000000Y-137220000D02*
X193450000Y-137220000D01*
X193000000Y-137220000D02*
X193000000Y-136720000D01*
X200700000Y-137220000D02*
X200700000Y-136720000D01*
X200700000Y-137220000D02*
X200200000Y-137220000D01*
X200700000Y-127020000D02*
X200200000Y-127020000D01*
X200700000Y-127020000D02*
X200700000Y-127520000D01*
X193000000Y-50820000D02*
X193000000Y-51320000D01*
X193000000Y-50820000D02*
X193450000Y-50820000D01*
X193000000Y-61020000D02*
X193450000Y-61020000D01*
X193000000Y-61020000D02*
X193000000Y-60520000D01*
X200700000Y-61020000D02*
X200700000Y-60520000D01*
X200700000Y-61020000D02*
X200200000Y-61020000D01*
X200700000Y-50820000D02*
X200200000Y-50820000D01*
X200700000Y-50820000D02*
X200700000Y-51320000D01*
X86400000Y-97850000D02*
X86400000Y-97350000D01*
X86400000Y-97850000D02*
X85950000Y-97850000D01*
X86400000Y-87650000D02*
X85950000Y-87650000D01*
X86400000Y-87650000D02*
X86400000Y-88150000D01*
X78700000Y-87650000D02*
X78700000Y-88150000D01*
X78700000Y-87650000D02*
X79200000Y-87650000D01*
X78700000Y-97850000D02*
X79200000Y-97850000D01*
X78700000Y-97850000D02*
X78700000Y-97350000D01*
D11*
X143510000Y-77470000D02*
X143510000Y-67310000D01*
X189230000Y-77470000D02*
X143510000Y-77470000D01*
X189230000Y-67310000D02*
X189230000Y-77470000D01*
X143510000Y-67310000D02*
X189230000Y-67310000D01*
X143510000Y-90170000D02*
X143510000Y-80010000D01*
X189230000Y-90170000D02*
X143510000Y-90170000D01*
X189230000Y-80010000D02*
X189230000Y-90170000D01*
X143510000Y-80010000D02*
X189230000Y-80010000D01*
X143510000Y-102870000D02*
X143510000Y-92710000D01*
X189230000Y-102870000D02*
X143510000Y-102870000D01*
X189230000Y-92710000D02*
X189230000Y-102870000D01*
X143510000Y-92710000D02*
X189230000Y-92710000D01*
X169418000Y-140716000D02*
X169418000Y-124460000D01*
X188722000Y-140716000D02*
X169418000Y-140716000D01*
X188722000Y-108204000D02*
X188722000Y-140716000D01*
X169418000Y-108204000D02*
X188722000Y-108204000D01*
X169418000Y-108712000D02*
X169418000Y-108204000D01*
X169418000Y-124460000D02*
X169418000Y-108712000D01*
X117856000Y-135890000D02*
X103124000Y-135890000D01*
X117856000Y-120650000D02*
X117856000Y-135890000D01*
X90424000Y-120650000D02*
X117856000Y-120650000D01*
X90424000Y-135890000D02*
X90424000Y-120650000D01*
X103124000Y-135890000D02*
X90424000Y-135890000D01*
X176784000Y-64516000D02*
X160020000Y-64516000D01*
X176784000Y-47244000D02*
X176784000Y-64516000D01*
X143256000Y-47244000D02*
X176784000Y-47244000D01*
X143256000Y-64516000D02*
X143256000Y-47244000D01*
X160020000Y-64516000D02*
X143256000Y-64516000D01*
X127508000Y-90932000D02*
X127508000Y-78740000D01*
X136652000Y-90932000D02*
X127508000Y-90932000D01*
X136652000Y-66548000D02*
X136652000Y-90932000D01*
X127508000Y-66548000D02*
X136652000Y-66548000D01*
X127508000Y-78740000D02*
X127508000Y-66548000D01*
X90678000Y-97536000D02*
X113030000Y-97536000D01*
X90678000Y-115824000D02*
X90678000Y-97536000D01*
X135382000Y-115824000D02*
X90678000Y-115824000D01*
X135382000Y-97536000D02*
X135382000Y-115824000D01*
X113030000Y-97536000D02*
X135382000Y-97536000D01*
X142748000Y-107950000D02*
X143256000Y-107950000D01*
X142748000Y-138430000D02*
X143256000Y-138430000D01*
X162052000Y-107950000D02*
X162052000Y-123190000D01*
X143256000Y-107950000D02*
X162052000Y-107950000D01*
X142748000Y-138430000D02*
X142748000Y-107950000D01*
X162052000Y-138430000D02*
X143256000Y-138430000D01*
X162052000Y-123190000D02*
X162052000Y-138430000D01*
D10*
X100163333Y-65222380D02*
X99687142Y-65222380D01*
X99687142Y-64222380D01*
X100401428Y-64222380D02*
X101020476Y-64222380D01*
X100687142Y-64603333D01*
X100830000Y-64603333D01*
X100925238Y-64650952D01*
X100972857Y-64698571D01*
X101020476Y-64793809D01*
X101020476Y-65031904D01*
X100972857Y-65127142D01*
X100925238Y-65174761D01*
X100830000Y-65222380D01*
X100544285Y-65222380D01*
X100449047Y-65174761D01*
X100401428Y-65127142D01*
X191502380Y-132253333D02*
X192216666Y-132253333D01*
X192359523Y-132300952D01*
X192454761Y-132396190D01*
X192502380Y-132539047D01*
X192502380Y-132634285D01*
X191502380Y-131872380D02*
X191502380Y-131253333D01*
X191883333Y-131586666D01*
X191883333Y-131443809D01*
X191930952Y-131348571D01*
X191978571Y-131300952D01*
X192073809Y-131253333D01*
X192311904Y-131253333D01*
X192407142Y-131300952D01*
X192454761Y-131348571D01*
X192502380Y-131443809D01*
X192502380Y-131729523D01*
X192454761Y-131824761D01*
X192407142Y-131872380D01*
X191502380Y-56053333D02*
X192216666Y-56053333D01*
X192359523Y-56100952D01*
X192454761Y-56196190D01*
X192502380Y-56339047D01*
X192502380Y-56434285D01*
X191597619Y-55624761D02*
X191550000Y-55577142D01*
X191502380Y-55481904D01*
X191502380Y-55243809D01*
X191550000Y-55148571D01*
X191597619Y-55100952D01*
X191692857Y-55053333D01*
X191788095Y-55053333D01*
X191930952Y-55100952D01*
X192502380Y-55672380D01*
X192502380Y-55053333D01*
X88352380Y-93043333D02*
X89066666Y-93043333D01*
X89209523Y-93090952D01*
X89304761Y-93186190D01*
X89352380Y-93329047D01*
X89352380Y-93424285D01*
X89352380Y-92043333D02*
X89352380Y-92614761D01*
X89352380Y-92329047D02*
X88352380Y-92329047D01*
X88495238Y-92424285D01*
X88590476Y-92519523D01*
X88638095Y-92614761D01*
X166203333Y-66492380D02*
X165870000Y-66016190D01*
X165631904Y-66492380D02*
X165631904Y-65492380D01*
X166012857Y-65492380D01*
X166108095Y-65540000D01*
X166155714Y-65587619D01*
X166203333Y-65682857D01*
X166203333Y-65825714D01*
X166155714Y-65920952D01*
X166108095Y-65968571D01*
X166012857Y-66016190D01*
X165631904Y-66016190D01*
X166536666Y-65492380D02*
X167155714Y-65492380D01*
X166822380Y-65873333D01*
X166965238Y-65873333D01*
X167060476Y-65920952D01*
X167108095Y-65968571D01*
X167155714Y-66063809D01*
X167155714Y-66301904D01*
X167108095Y-66397142D01*
X167060476Y-66444761D01*
X166965238Y-66492380D01*
X166679523Y-66492380D01*
X166584285Y-66444761D01*
X166536666Y-66397142D01*
X166203333Y-79192380D02*
X165870000Y-78716190D01*
X165631904Y-79192380D02*
X165631904Y-78192380D01*
X166012857Y-78192380D01*
X166108095Y-78240000D01*
X166155714Y-78287619D01*
X166203333Y-78382857D01*
X166203333Y-78525714D01*
X166155714Y-78620952D01*
X166108095Y-78668571D01*
X166012857Y-78716190D01*
X165631904Y-78716190D01*
X166584285Y-78287619D02*
X166631904Y-78240000D01*
X166727142Y-78192380D01*
X166965238Y-78192380D01*
X167060476Y-78240000D01*
X167108095Y-78287619D01*
X167155714Y-78382857D01*
X167155714Y-78478095D01*
X167108095Y-78620952D01*
X166536666Y-79192380D01*
X167155714Y-79192380D01*
X166203333Y-91892380D02*
X165870000Y-91416190D01*
X165631904Y-91892380D02*
X165631904Y-90892380D01*
X166012857Y-90892380D01*
X166108095Y-90940000D01*
X166155714Y-90987619D01*
X166203333Y-91082857D01*
X166203333Y-91225714D01*
X166155714Y-91320952D01*
X166108095Y-91368571D01*
X166012857Y-91416190D01*
X165631904Y-91416190D01*
X167155714Y-91892380D02*
X166584285Y-91892380D01*
X166870000Y-91892380D02*
X166870000Y-90892380D01*
X166774761Y-91035238D01*
X166679523Y-91130476D01*
X166584285Y-91178095D01*
X168092380Y-124626666D02*
X168092380Y-125102857D01*
X167092380Y-125102857D01*
X167187619Y-124340952D02*
X167140000Y-124293333D01*
X167092380Y-124198095D01*
X167092380Y-123960000D01*
X167140000Y-123864761D01*
X167187619Y-123817142D01*
X167282857Y-123769523D01*
X167378095Y-123769523D01*
X167520952Y-123817142D01*
X168092380Y-124388571D01*
X168092380Y-123769523D01*
X103973333Y-118562380D02*
X103497142Y-118562380D01*
X103497142Y-117562380D01*
X104830476Y-118562380D02*
X104259047Y-118562380D01*
X104544761Y-118562380D02*
X104544761Y-117562380D01*
X104449523Y-117705238D01*
X104354285Y-117800476D01*
X104259047Y-117848095D01*
X159853333Y-46077142D02*
X159805714Y-46124761D01*
X159662857Y-46172380D01*
X159567619Y-46172380D01*
X159424761Y-46124761D01*
X159329523Y-46029523D01*
X159281904Y-45934285D01*
X159234285Y-45743809D01*
X159234285Y-45600952D01*
X159281904Y-45410476D01*
X159329523Y-45315238D01*
X159424761Y-45220000D01*
X159567619Y-45172380D01*
X159662857Y-45172380D01*
X159805714Y-45220000D01*
X159853333Y-45267619D01*
X160710476Y-45505714D02*
X160710476Y-46172380D01*
X160472380Y-45124761D02*
X160234285Y-45839047D01*
X160853333Y-45839047D01*
X126087142Y-78906666D02*
X126134761Y-78954285D01*
X126182380Y-79097142D01*
X126182380Y-79192380D01*
X126134761Y-79335238D01*
X126039523Y-79430476D01*
X125944285Y-79478095D01*
X125753809Y-79525714D01*
X125610952Y-79525714D01*
X125420476Y-79478095D01*
X125325238Y-79430476D01*
X125230000Y-79335238D01*
X125182380Y-79192380D01*
X125182380Y-79097142D01*
X125230000Y-78954285D01*
X125277619Y-78906666D01*
X125182380Y-78573333D02*
X125182380Y-77954285D01*
X125563333Y-78287619D01*
X125563333Y-78144761D01*
X125610952Y-78049523D01*
X125658571Y-78001904D01*
X125753809Y-77954285D01*
X125991904Y-77954285D01*
X126087142Y-78001904D01*
X126134761Y-78049523D01*
X126182380Y-78144761D01*
X126182380Y-78430476D01*
X126134761Y-78525714D01*
X126087142Y-78573333D01*
X112863333Y-95607142D02*
X112815714Y-95654761D01*
X112672857Y-95702380D01*
X112577619Y-95702380D01*
X112434761Y-95654761D01*
X112339523Y-95559523D01*
X112291904Y-95464285D01*
X112244285Y-95273809D01*
X112244285Y-95130952D01*
X112291904Y-94940476D01*
X112339523Y-94845238D01*
X112434761Y-94750000D01*
X112577619Y-94702380D01*
X112672857Y-94702380D01*
X112815714Y-94750000D01*
X112863333Y-94797619D01*
X113244285Y-94797619D02*
X113291904Y-94750000D01*
X113387142Y-94702380D01*
X113625238Y-94702380D01*
X113720476Y-94750000D01*
X113768095Y-94797619D01*
X113815714Y-94892857D01*
X113815714Y-94988095D01*
X113768095Y-95130952D01*
X113196666Y-95702380D01*
X113815714Y-95702380D01*
X141327142Y-123356666D02*
X141374761Y-123404285D01*
X141422380Y-123547142D01*
X141422380Y-123642380D01*
X141374761Y-123785238D01*
X141279523Y-123880476D01*
X141184285Y-123928095D01*
X140993809Y-123975714D01*
X140850952Y-123975714D01*
X140660476Y-123928095D01*
X140565238Y-123880476D01*
X140470000Y-123785238D01*
X140422380Y-123642380D01*
X140422380Y-123547142D01*
X140470000Y-123404285D01*
X140517619Y-123356666D01*
X141422380Y-122404285D02*
X141422380Y-122975714D01*
X141422380Y-122690000D02*
X140422380Y-122690000D01*
X140565238Y-122785238D01*
X140660476Y-122880476D01*
X140708095Y-122975714D01*
M02*
