G04 #@! TF.GenerationSoftware,KiCad,Pcbnew,(5.1.4)-1*
G04 #@! TF.CreationDate,2020-05-16T14:16:50-04:00*
G04 #@! TF.ProjectId,Crossover circuit,43726f73-736f-4766-9572-206369726375,rev?*
G04 #@! TF.SameCoordinates,Original*
G04 #@! TF.FileFunction,Copper,L1,Top*
G04 #@! TF.FilePolarity,Positive*
%FSLAX46Y46*%
G04 Gerber Fmt 4.6, Leading zero omitted, Abs format (unit mm)*
G04 Created by KiCad (PCBNEW (5.1.4)-1) date 2020-05-16 14:16:50*
%MOMM*%
%LPD*%
G04 APERTURE LIST*
%ADD10C,0.600000*%
%ADD11C,1.524000*%
%ADD12C,2.500000*%
%ADD13R,2.500000X2.500000*%
%ADD14C,1.000000*%
%ADD15C,0.250000*%
%ADD16C,0.254000*%
G04 APERTURE END LIST*
D10*
X109220000Y-140970000D03*
X176530000Y-140970000D03*
X172720000Y-43180000D03*
X110490000Y-43180000D03*
X99060000Y-69850000D03*
X176530000Y-119380000D03*
X148590000Y-85090000D03*
X176530000Y-78740000D03*
X115570000Y-101600000D03*
X80010000Y-109220000D03*
X80010000Y-77470000D03*
X199390000Y-91440000D03*
X142240000Y-140970000D03*
X142240000Y-43180000D03*
X80010000Y-43180000D03*
X80010000Y-140970000D03*
X199390000Y-140970000D03*
X199390000Y-43180000D03*
D11*
X123698000Y-64770000D03*
X100330000Y-74422000D03*
D12*
X196850000Y-129620000D03*
D13*
X196850000Y-134620000D03*
D12*
X196850000Y-53420000D03*
D13*
X196850000Y-58420000D03*
D12*
X82550000Y-95250000D03*
D13*
X82550000Y-90250000D03*
D11*
X191770000Y-72390000D03*
X140970000Y-72390000D03*
X191770000Y-85090000D03*
X140970000Y-85090000D03*
X191770000Y-97790000D03*
X140970000Y-97790000D03*
X174498000Y-106680000D03*
X188722000Y-140716000D03*
X95504000Y-120650000D03*
X117856000Y-120650000D03*
X141732000Y-55880000D03*
X178308000Y-55880000D03*
X132080000Y-65024000D03*
X132080000Y-92456000D03*
X136906000Y-106680000D03*
X89154000Y-106680000D03*
X152400000Y-139954000D03*
X152400000Y-106426000D03*
D14*
X89154000Y-114300000D02*
X95504000Y-120650000D01*
X89154000Y-106680000D02*
X89154000Y-114300000D01*
X152400000Y-139954000D02*
X149860000Y-137414000D01*
D15*
X112268000Y-137414000D02*
X111887000Y-137033000D01*
D14*
X149860000Y-137414000D02*
X112268000Y-137414000D01*
X111887000Y-137033000D02*
X95504000Y-120650000D01*
X127000000Y-64770000D02*
X123698000Y-64770000D01*
X152400000Y-97790000D02*
X144780000Y-90170000D01*
X152400000Y-106426000D02*
X152400000Y-97790000D01*
X144780000Y-90170000D02*
X137160000Y-90170000D01*
X137160000Y-90170000D02*
X128270000Y-81280000D01*
X128270000Y-81280000D02*
X128270000Y-66040000D01*
X128270000Y-66040000D02*
X127000000Y-64770000D01*
X128270000Y-81440000D02*
X119460000Y-90250000D01*
X128270000Y-81280000D02*
X128270000Y-81440000D01*
X82550000Y-90250000D02*
X119460000Y-90250000D01*
X136906000Y-101854000D02*
X140970000Y-97790000D01*
X136906000Y-106680000D02*
X136906000Y-101854000D01*
X142240000Y-97790000D02*
X140970000Y-97790000D01*
X146050000Y-101600000D02*
X142240000Y-97790000D01*
X146050000Y-110490000D02*
X146050000Y-101600000D01*
X147828000Y-112268000D02*
X146050000Y-110490000D01*
X174498000Y-106680000D02*
X168910000Y-112268000D01*
X168910000Y-112268000D02*
X147828000Y-112268000D01*
D15*
X141224000Y-55880000D02*
X141732000Y-55880000D01*
D14*
X132080000Y-65024000D02*
X141224000Y-55880000D01*
X147737766Y-77470000D02*
X139700000Y-77470000D01*
X132080000Y-69850000D02*
X132080000Y-65024000D01*
X139700000Y-77470000D02*
X132080000Y-69850000D01*
X196850000Y-127000000D02*
X197058883Y-126791117D01*
X196850000Y-129620000D02*
X196850000Y-127000000D01*
X197058883Y-126791117D02*
X147737766Y-77470000D01*
X113792000Y-60960000D02*
X100330000Y-74422000D01*
X132080000Y-65024000D02*
X128016000Y-60960000D01*
X128016000Y-60960000D02*
X113792000Y-60960000D01*
X190754000Y-140716000D02*
X188722000Y-140716000D01*
X191770000Y-139700000D02*
X190754000Y-140716000D01*
X191770000Y-137160000D02*
X191770000Y-139700000D01*
X194310000Y-134620000D02*
X191770000Y-137160000D01*
X196620000Y-58420000D02*
X190270000Y-52070000D01*
X161290000Y-52070000D02*
X140970000Y-72390000D01*
X190270000Y-52070000D02*
X161290000Y-52070000D01*
X132080000Y-92456000D02*
X132080000Y-110490000D01*
X121920000Y-120650000D02*
X117856000Y-120650000D01*
X132080000Y-110490000D02*
X121920000Y-120650000D01*
X147320000Y-125730000D02*
X132080000Y-110490000D01*
X173736000Y-125730000D02*
X147320000Y-125730000D01*
X188722000Y-140716000D02*
X173736000Y-125730000D01*
X194310000Y-134620000D02*
X196850000Y-134620000D01*
X117856000Y-120650000D02*
X111760000Y-120650000D01*
X111760000Y-120650000D02*
X86360000Y-95250000D01*
X86360000Y-95250000D02*
X82550000Y-95250000D01*
X191770000Y-69342000D02*
X178308000Y-55880000D01*
X191770000Y-72390000D02*
X191770000Y-69342000D01*
X191770000Y-97790000D02*
X191770000Y-85090000D01*
X199695001Y-77164999D02*
X191770000Y-85090000D01*
X199695001Y-54995001D02*
X199695001Y-77164999D01*
X196850000Y-53420000D02*
X198120000Y-53420000D01*
X198120000Y-53420000D02*
X199695001Y-54995001D01*
D16*
G36*
X201270001Y-142850000D02*
G01*
X78130000Y-142850000D01*
X78130000Y-140877911D01*
X79075000Y-140877911D01*
X79075000Y-141062089D01*
X79110932Y-141242729D01*
X79181414Y-141412889D01*
X79283738Y-141566028D01*
X79413972Y-141696262D01*
X79567111Y-141798586D01*
X79737271Y-141869068D01*
X79917911Y-141905000D01*
X80102089Y-141905000D01*
X80282729Y-141869068D01*
X80452889Y-141798586D01*
X80606028Y-141696262D01*
X80736262Y-141566028D01*
X80838586Y-141412889D01*
X80909068Y-141242729D01*
X80945000Y-141062089D01*
X80945000Y-140877911D01*
X108285000Y-140877911D01*
X108285000Y-141062089D01*
X108320932Y-141242729D01*
X108391414Y-141412889D01*
X108493738Y-141566028D01*
X108623972Y-141696262D01*
X108777111Y-141798586D01*
X108947271Y-141869068D01*
X109127911Y-141905000D01*
X109312089Y-141905000D01*
X109492729Y-141869068D01*
X109662889Y-141798586D01*
X109816028Y-141696262D01*
X109946262Y-141566028D01*
X110048586Y-141412889D01*
X110119068Y-141242729D01*
X110155000Y-141062089D01*
X110155000Y-140877911D01*
X141305000Y-140877911D01*
X141305000Y-141062089D01*
X141340932Y-141242729D01*
X141411414Y-141412889D01*
X141513738Y-141566028D01*
X141643972Y-141696262D01*
X141797111Y-141798586D01*
X141967271Y-141869068D01*
X142147911Y-141905000D01*
X142332089Y-141905000D01*
X142512729Y-141869068D01*
X142682889Y-141798586D01*
X142836028Y-141696262D01*
X142966262Y-141566028D01*
X143068586Y-141412889D01*
X143139068Y-141242729D01*
X143175000Y-141062089D01*
X143175000Y-140877911D01*
X143139068Y-140697271D01*
X143068586Y-140527111D01*
X142966262Y-140373972D01*
X142836028Y-140243738D01*
X142682889Y-140141414D01*
X142512729Y-140070932D01*
X142332089Y-140035000D01*
X142147911Y-140035000D01*
X141967271Y-140070932D01*
X141797111Y-140141414D01*
X141643972Y-140243738D01*
X141513738Y-140373972D01*
X141411414Y-140527111D01*
X141340932Y-140697271D01*
X141305000Y-140877911D01*
X110155000Y-140877911D01*
X110119068Y-140697271D01*
X110048586Y-140527111D01*
X109946262Y-140373972D01*
X109816028Y-140243738D01*
X109662889Y-140141414D01*
X109492729Y-140070932D01*
X109312089Y-140035000D01*
X109127911Y-140035000D01*
X108947271Y-140070932D01*
X108777111Y-140141414D01*
X108623972Y-140243738D01*
X108493738Y-140373972D01*
X108391414Y-140527111D01*
X108320932Y-140697271D01*
X108285000Y-140877911D01*
X80945000Y-140877911D01*
X80909068Y-140697271D01*
X80838586Y-140527111D01*
X80736262Y-140373972D01*
X80606028Y-140243738D01*
X80452889Y-140141414D01*
X80282729Y-140070932D01*
X80102089Y-140035000D01*
X79917911Y-140035000D01*
X79737271Y-140070932D01*
X79567111Y-140141414D01*
X79413972Y-140243738D01*
X79283738Y-140373972D01*
X79181414Y-140527111D01*
X79110932Y-140697271D01*
X79075000Y-140877911D01*
X78130000Y-140877911D01*
X78130000Y-109127911D01*
X79075000Y-109127911D01*
X79075000Y-109312089D01*
X79110932Y-109492729D01*
X79181414Y-109662889D01*
X79283738Y-109816028D01*
X79413972Y-109946262D01*
X79567111Y-110048586D01*
X79737271Y-110119068D01*
X79917911Y-110155000D01*
X80102089Y-110155000D01*
X80282729Y-110119068D01*
X80452889Y-110048586D01*
X80606028Y-109946262D01*
X80736262Y-109816028D01*
X80838586Y-109662889D01*
X80909068Y-109492729D01*
X80945000Y-109312089D01*
X80945000Y-109127911D01*
X80909068Y-108947271D01*
X80838586Y-108777111D01*
X80736262Y-108623972D01*
X80606028Y-108493738D01*
X80452889Y-108391414D01*
X80282729Y-108320932D01*
X80102089Y-108285000D01*
X79917911Y-108285000D01*
X79737271Y-108320932D01*
X79567111Y-108391414D01*
X79413972Y-108493738D01*
X79283738Y-108623972D01*
X79181414Y-108777111D01*
X79110932Y-108947271D01*
X79075000Y-109127911D01*
X78130000Y-109127911D01*
X78130000Y-106542408D01*
X87757000Y-106542408D01*
X87757000Y-106817592D01*
X87810686Y-107087490D01*
X87915995Y-107341727D01*
X88019000Y-107495885D01*
X88019001Y-114244239D01*
X88013509Y-114300000D01*
X88035423Y-114522498D01*
X88100324Y-114736446D01*
X88100325Y-114736447D01*
X88205717Y-114933623D01*
X88347552Y-115106449D01*
X88390860Y-115141991D01*
X94124515Y-120875647D01*
X94160686Y-121057490D01*
X94265995Y-121311727D01*
X94418880Y-121540535D01*
X94613465Y-121735120D01*
X94842273Y-121888005D01*
X95096510Y-121993314D01*
X95278354Y-122029485D01*
X111123856Y-137874988D01*
X111253377Y-137981284D01*
X111296608Y-138004392D01*
X111319716Y-138047623D01*
X111461551Y-138220449D01*
X111634377Y-138362284D01*
X111831553Y-138467676D01*
X112045501Y-138532577D01*
X112212248Y-138549000D01*
X149389869Y-138549000D01*
X151020515Y-140179647D01*
X151056686Y-140361490D01*
X151161995Y-140615727D01*
X151314880Y-140844535D01*
X151509465Y-141039120D01*
X151738273Y-141192005D01*
X151992510Y-141297314D01*
X152262408Y-141351000D01*
X152537592Y-141351000D01*
X152807490Y-141297314D01*
X153061727Y-141192005D01*
X153290535Y-141039120D01*
X153451744Y-140877911D01*
X175595000Y-140877911D01*
X175595000Y-141062089D01*
X175630932Y-141242729D01*
X175701414Y-141412889D01*
X175803738Y-141566028D01*
X175933972Y-141696262D01*
X176087111Y-141798586D01*
X176257271Y-141869068D01*
X176437911Y-141905000D01*
X176622089Y-141905000D01*
X176802729Y-141869068D01*
X176972889Y-141798586D01*
X177126028Y-141696262D01*
X177256262Y-141566028D01*
X177358586Y-141412889D01*
X177429068Y-141242729D01*
X177465000Y-141062089D01*
X177465000Y-140877911D01*
X177429068Y-140697271D01*
X177358586Y-140527111D01*
X177256262Y-140373972D01*
X177126028Y-140243738D01*
X176972889Y-140141414D01*
X176802729Y-140070932D01*
X176622089Y-140035000D01*
X176437911Y-140035000D01*
X176257271Y-140070932D01*
X176087111Y-140141414D01*
X175933972Y-140243738D01*
X175803738Y-140373972D01*
X175701414Y-140527111D01*
X175630932Y-140697271D01*
X175595000Y-140877911D01*
X153451744Y-140877911D01*
X153485120Y-140844535D01*
X153638005Y-140615727D01*
X153743314Y-140361490D01*
X153797000Y-140091592D01*
X153797000Y-139816408D01*
X153743314Y-139546510D01*
X153638005Y-139292273D01*
X153485120Y-139063465D01*
X153290535Y-138868880D01*
X153061727Y-138715995D01*
X152807490Y-138610686D01*
X152625647Y-138574515D01*
X150701996Y-136650865D01*
X150666449Y-136607551D01*
X150493623Y-136465716D01*
X150296447Y-136360324D01*
X150082499Y-136295423D01*
X149915752Y-136279000D01*
X149915751Y-136279000D01*
X149860000Y-136273509D01*
X149804249Y-136279000D01*
X112736492Y-136279000D01*
X112728988Y-136269856D01*
X96883485Y-120424354D01*
X96847314Y-120242510D01*
X96742005Y-119988273D01*
X96589120Y-119759465D01*
X96394535Y-119564880D01*
X96165727Y-119411995D01*
X95911490Y-119306686D01*
X95729647Y-119270515D01*
X90289000Y-113829869D01*
X90289000Y-107495884D01*
X90392005Y-107341727D01*
X90497314Y-107087490D01*
X90551000Y-106817592D01*
X90551000Y-106542408D01*
X90497314Y-106272510D01*
X90392005Y-106018273D01*
X90239120Y-105789465D01*
X90044535Y-105594880D01*
X89815727Y-105441995D01*
X89561490Y-105336686D01*
X89291592Y-105283000D01*
X89016408Y-105283000D01*
X88746510Y-105336686D01*
X88492273Y-105441995D01*
X88263465Y-105594880D01*
X88068880Y-105789465D01*
X87915995Y-106018273D01*
X87810686Y-106272510D01*
X87757000Y-106542408D01*
X78130000Y-106542408D01*
X78130000Y-95064344D01*
X80665000Y-95064344D01*
X80665000Y-95435656D01*
X80737439Y-95799834D01*
X80879534Y-96142882D01*
X81085825Y-96451618D01*
X81348382Y-96714175D01*
X81657118Y-96920466D01*
X82000166Y-97062561D01*
X82364344Y-97135000D01*
X82735656Y-97135000D01*
X83099834Y-97062561D01*
X83442882Y-96920466D01*
X83751618Y-96714175D01*
X84014175Y-96451618D01*
X84058688Y-96385000D01*
X85889869Y-96385000D01*
X110918009Y-121413141D01*
X110953551Y-121456449D01*
X111126377Y-121598284D01*
X111323553Y-121703676D01*
X111537501Y-121768577D01*
X111704248Y-121785000D01*
X111704257Y-121785000D01*
X111759999Y-121790490D01*
X111815741Y-121785000D01*
X117040116Y-121785000D01*
X117194273Y-121888005D01*
X117448510Y-121993314D01*
X117718408Y-122047000D01*
X117993592Y-122047000D01*
X118263490Y-121993314D01*
X118517727Y-121888005D01*
X118671884Y-121785000D01*
X121864249Y-121785000D01*
X121920000Y-121790491D01*
X121975751Y-121785000D01*
X121975752Y-121785000D01*
X122142499Y-121768577D01*
X122356447Y-121703676D01*
X122553623Y-121598284D01*
X122726449Y-121456449D01*
X122761996Y-121413135D01*
X132080000Y-112095132D01*
X146478013Y-126493146D01*
X146513551Y-126536449D01*
X146556854Y-126571987D01*
X146556856Y-126571989D01*
X146686377Y-126678284D01*
X146883553Y-126783676D01*
X147097501Y-126848577D01*
X147320000Y-126870491D01*
X147375752Y-126865000D01*
X173265869Y-126865000D01*
X187342515Y-140941647D01*
X187378686Y-141123490D01*
X187483995Y-141377727D01*
X187636880Y-141606535D01*
X187831465Y-141801120D01*
X188060273Y-141954005D01*
X188314510Y-142059314D01*
X188584408Y-142113000D01*
X188859592Y-142113000D01*
X189129490Y-142059314D01*
X189383727Y-141954005D01*
X189537884Y-141851000D01*
X190698249Y-141851000D01*
X190754000Y-141856491D01*
X190809751Y-141851000D01*
X190809752Y-141851000D01*
X190976499Y-141834577D01*
X191190447Y-141769676D01*
X191387623Y-141664284D01*
X191560449Y-141522449D01*
X191595996Y-141479136D01*
X192197221Y-140877911D01*
X198455000Y-140877911D01*
X198455000Y-141062089D01*
X198490932Y-141242729D01*
X198561414Y-141412889D01*
X198663738Y-141566028D01*
X198793972Y-141696262D01*
X198947111Y-141798586D01*
X199117271Y-141869068D01*
X199297911Y-141905000D01*
X199482089Y-141905000D01*
X199662729Y-141869068D01*
X199832889Y-141798586D01*
X199986028Y-141696262D01*
X200116262Y-141566028D01*
X200218586Y-141412889D01*
X200289068Y-141242729D01*
X200325000Y-141062089D01*
X200325000Y-140877911D01*
X200289068Y-140697271D01*
X200218586Y-140527111D01*
X200116262Y-140373972D01*
X199986028Y-140243738D01*
X199832889Y-140141414D01*
X199662729Y-140070932D01*
X199482089Y-140035000D01*
X199297911Y-140035000D01*
X199117271Y-140070932D01*
X198947111Y-140141414D01*
X198793972Y-140243738D01*
X198663738Y-140373972D01*
X198561414Y-140527111D01*
X198490932Y-140697271D01*
X198455000Y-140877911D01*
X192197221Y-140877911D01*
X192533140Y-140541992D01*
X192576449Y-140506449D01*
X192718284Y-140333623D01*
X192823676Y-140136447D01*
X192888577Y-139922499D01*
X192905000Y-139755752D01*
X192910491Y-139700000D01*
X192905000Y-139644249D01*
X192905000Y-137630131D01*
X194780132Y-135755000D01*
X194961928Y-135755000D01*
X194961928Y-135870000D01*
X194974188Y-135994482D01*
X195010498Y-136114180D01*
X195069463Y-136224494D01*
X195148815Y-136321185D01*
X195245506Y-136400537D01*
X195355820Y-136459502D01*
X195475518Y-136495812D01*
X195600000Y-136508072D01*
X198100000Y-136508072D01*
X198224482Y-136495812D01*
X198344180Y-136459502D01*
X198454494Y-136400537D01*
X198551185Y-136321185D01*
X198630537Y-136224494D01*
X198689502Y-136114180D01*
X198725812Y-135994482D01*
X198738072Y-135870000D01*
X198738072Y-133370000D01*
X198725812Y-133245518D01*
X198689502Y-133125820D01*
X198630537Y-133015506D01*
X198551185Y-132918815D01*
X198454494Y-132839463D01*
X198344180Y-132780498D01*
X198224482Y-132744188D01*
X198100000Y-132731928D01*
X195600000Y-132731928D01*
X195475518Y-132744188D01*
X195355820Y-132780498D01*
X195245506Y-132839463D01*
X195148815Y-132918815D01*
X195069463Y-133015506D01*
X195010498Y-133125820D01*
X194974188Y-133245518D01*
X194961928Y-133370000D01*
X194961928Y-133485000D01*
X194365741Y-133485000D01*
X194309999Y-133479510D01*
X194254257Y-133485000D01*
X194254248Y-133485000D01*
X194087501Y-133501423D01*
X193873553Y-133566324D01*
X193676377Y-133671716D01*
X193503551Y-133813551D01*
X193468009Y-133856859D01*
X191006865Y-136318004D01*
X190963551Y-136353551D01*
X190821716Y-136526377D01*
X190716325Y-136723553D01*
X190716324Y-136723554D01*
X190651423Y-136937502D01*
X190629509Y-137160000D01*
X190635000Y-137215752D01*
X190635001Y-139229868D01*
X190283869Y-139581000D01*
X189537884Y-139581000D01*
X189383727Y-139477995D01*
X189129490Y-139372686D01*
X188947647Y-139336515D01*
X174577996Y-124966865D01*
X174542449Y-124923551D01*
X174369623Y-124781716D01*
X174172447Y-124676324D01*
X173958499Y-124611423D01*
X173791752Y-124595000D01*
X173791751Y-124595000D01*
X173736000Y-124589509D01*
X173680249Y-124595000D01*
X147790133Y-124595000D01*
X142483044Y-119287911D01*
X175595000Y-119287911D01*
X175595000Y-119472089D01*
X175630932Y-119652729D01*
X175701414Y-119822889D01*
X175803738Y-119976028D01*
X175933972Y-120106262D01*
X176087111Y-120208586D01*
X176257271Y-120279068D01*
X176437911Y-120315000D01*
X176622089Y-120315000D01*
X176802729Y-120279068D01*
X176972889Y-120208586D01*
X177126028Y-120106262D01*
X177256262Y-119976028D01*
X177358586Y-119822889D01*
X177429068Y-119652729D01*
X177465000Y-119472089D01*
X177465000Y-119287911D01*
X177429068Y-119107271D01*
X177358586Y-118937111D01*
X177256262Y-118783972D01*
X177126028Y-118653738D01*
X176972889Y-118551414D01*
X176802729Y-118480932D01*
X176622089Y-118445000D01*
X176437911Y-118445000D01*
X176257271Y-118480932D01*
X176087111Y-118551414D01*
X175933972Y-118653738D01*
X175803738Y-118783972D01*
X175701414Y-118937111D01*
X175630932Y-119107271D01*
X175595000Y-119287911D01*
X142483044Y-119287911D01*
X133215000Y-110019869D01*
X133215000Y-93271884D01*
X133318005Y-93117727D01*
X133423314Y-92863490D01*
X133477000Y-92593592D01*
X133477000Y-92318408D01*
X133423314Y-92048510D01*
X133318005Y-91794273D01*
X133165120Y-91565465D01*
X132970535Y-91370880D01*
X132741727Y-91217995D01*
X132487490Y-91112686D01*
X132217592Y-91059000D01*
X131942408Y-91059000D01*
X131672510Y-91112686D01*
X131418273Y-91217995D01*
X131189465Y-91370880D01*
X130994880Y-91565465D01*
X130841995Y-91794273D01*
X130736686Y-92048510D01*
X130683000Y-92318408D01*
X130683000Y-92593592D01*
X130736686Y-92863490D01*
X130841995Y-93117727D01*
X130945000Y-93271885D01*
X130945001Y-110019867D01*
X121449869Y-119515000D01*
X118671884Y-119515000D01*
X118517727Y-119411995D01*
X118263490Y-119306686D01*
X117993592Y-119253000D01*
X117718408Y-119253000D01*
X117448510Y-119306686D01*
X117194273Y-119411995D01*
X117040116Y-119515000D01*
X112230132Y-119515000D01*
X94223043Y-101507911D01*
X114635000Y-101507911D01*
X114635000Y-101692089D01*
X114670932Y-101872729D01*
X114741414Y-102042889D01*
X114843738Y-102196028D01*
X114973972Y-102326262D01*
X115127111Y-102428586D01*
X115297271Y-102499068D01*
X115477911Y-102535000D01*
X115662089Y-102535000D01*
X115842729Y-102499068D01*
X116012889Y-102428586D01*
X116166028Y-102326262D01*
X116296262Y-102196028D01*
X116398586Y-102042889D01*
X116469068Y-101872729D01*
X116505000Y-101692089D01*
X116505000Y-101507911D01*
X116469068Y-101327271D01*
X116398586Y-101157111D01*
X116296262Y-101003972D01*
X116166028Y-100873738D01*
X116012889Y-100771414D01*
X115842729Y-100700932D01*
X115662089Y-100665000D01*
X115477911Y-100665000D01*
X115297271Y-100700932D01*
X115127111Y-100771414D01*
X114973972Y-100873738D01*
X114843738Y-101003972D01*
X114741414Y-101157111D01*
X114670932Y-101327271D01*
X114635000Y-101507911D01*
X94223043Y-101507911D01*
X87201996Y-94486865D01*
X87166449Y-94443551D01*
X86993623Y-94301716D01*
X86796447Y-94196324D01*
X86582499Y-94131423D01*
X86415752Y-94115000D01*
X86415751Y-94115000D01*
X86360000Y-94109509D01*
X86304249Y-94115000D01*
X84058688Y-94115000D01*
X84014175Y-94048382D01*
X83751618Y-93785825D01*
X83442882Y-93579534D01*
X83099834Y-93437439D01*
X82735656Y-93365000D01*
X82364344Y-93365000D01*
X82000166Y-93437439D01*
X81657118Y-93579534D01*
X81348382Y-93785825D01*
X81085825Y-94048382D01*
X80879534Y-94357118D01*
X80737439Y-94700166D01*
X80665000Y-95064344D01*
X78130000Y-95064344D01*
X78130000Y-89000000D01*
X80661928Y-89000000D01*
X80661928Y-91500000D01*
X80674188Y-91624482D01*
X80710498Y-91744180D01*
X80769463Y-91854494D01*
X80848815Y-91951185D01*
X80945506Y-92030537D01*
X81055820Y-92089502D01*
X81175518Y-92125812D01*
X81300000Y-92138072D01*
X83800000Y-92138072D01*
X83924482Y-92125812D01*
X84044180Y-92089502D01*
X84154494Y-92030537D01*
X84251185Y-91951185D01*
X84330537Y-91854494D01*
X84389502Y-91744180D01*
X84425812Y-91624482D01*
X84438072Y-91500000D01*
X84438072Y-91385000D01*
X119404249Y-91385000D01*
X119460000Y-91390491D01*
X119515751Y-91385000D01*
X119515752Y-91385000D01*
X119682499Y-91368577D01*
X119896447Y-91303676D01*
X120093623Y-91198284D01*
X120266449Y-91056449D01*
X120301996Y-91013135D01*
X128350000Y-82965132D01*
X136318013Y-90933146D01*
X136353551Y-90976449D01*
X136396854Y-91011987D01*
X136396856Y-91011989D01*
X136526377Y-91118284D01*
X136723553Y-91223676D01*
X136937501Y-91288577D01*
X137160000Y-91310491D01*
X137215752Y-91305000D01*
X144309869Y-91305000D01*
X151265001Y-98260133D01*
X151265000Y-105610115D01*
X151161995Y-105764273D01*
X151056686Y-106018510D01*
X151003000Y-106288408D01*
X151003000Y-106563592D01*
X151056686Y-106833490D01*
X151161995Y-107087727D01*
X151314880Y-107316535D01*
X151509465Y-107511120D01*
X151738273Y-107664005D01*
X151992510Y-107769314D01*
X152262408Y-107823000D01*
X152537592Y-107823000D01*
X152807490Y-107769314D01*
X153061727Y-107664005D01*
X153290535Y-107511120D01*
X153485120Y-107316535D01*
X153638005Y-107087727D01*
X153743314Y-106833490D01*
X153797000Y-106563592D01*
X153797000Y-106288408D01*
X153743314Y-106018510D01*
X153638005Y-105764273D01*
X153535000Y-105610116D01*
X153535000Y-97845741D01*
X153540490Y-97789999D01*
X153535000Y-97734257D01*
X153535000Y-97734248D01*
X153518577Y-97567501D01*
X153453676Y-97353553D01*
X153348284Y-97156377D01*
X153206449Y-96983551D01*
X153163141Y-96948009D01*
X145621996Y-89406865D01*
X145586449Y-89363551D01*
X145413623Y-89221716D01*
X145216447Y-89116324D01*
X145002499Y-89051423D01*
X144835752Y-89035000D01*
X144835751Y-89035000D01*
X144780000Y-89029509D01*
X144724249Y-89035000D01*
X137630133Y-89035000D01*
X133547541Y-84952408D01*
X139573000Y-84952408D01*
X139573000Y-85227592D01*
X139626686Y-85497490D01*
X139731995Y-85751727D01*
X139884880Y-85980535D01*
X140079465Y-86175120D01*
X140308273Y-86328005D01*
X140562510Y-86433314D01*
X140832408Y-86487000D01*
X141107592Y-86487000D01*
X141377490Y-86433314D01*
X141631727Y-86328005D01*
X141860535Y-86175120D01*
X142055120Y-85980535D01*
X142208005Y-85751727D01*
X142313314Y-85497490D01*
X142367000Y-85227592D01*
X142367000Y-84997911D01*
X147655000Y-84997911D01*
X147655000Y-85182089D01*
X147690932Y-85362729D01*
X147761414Y-85532889D01*
X147863738Y-85686028D01*
X147993972Y-85816262D01*
X148147111Y-85918586D01*
X148317271Y-85989068D01*
X148497911Y-86025000D01*
X148682089Y-86025000D01*
X148862729Y-85989068D01*
X149032889Y-85918586D01*
X149186028Y-85816262D01*
X149316262Y-85686028D01*
X149418586Y-85532889D01*
X149489068Y-85362729D01*
X149525000Y-85182089D01*
X149525000Y-84997911D01*
X149489068Y-84817271D01*
X149418586Y-84647111D01*
X149316262Y-84493972D01*
X149186028Y-84363738D01*
X149032889Y-84261414D01*
X148862729Y-84190932D01*
X148682089Y-84155000D01*
X148497911Y-84155000D01*
X148317271Y-84190932D01*
X148147111Y-84261414D01*
X147993972Y-84363738D01*
X147863738Y-84493972D01*
X147761414Y-84647111D01*
X147690932Y-84817271D01*
X147655000Y-84997911D01*
X142367000Y-84997911D01*
X142367000Y-84952408D01*
X142313314Y-84682510D01*
X142208005Y-84428273D01*
X142055120Y-84199465D01*
X141860535Y-84004880D01*
X141631727Y-83851995D01*
X141377490Y-83746686D01*
X141107592Y-83693000D01*
X140832408Y-83693000D01*
X140562510Y-83746686D01*
X140308273Y-83851995D01*
X140079465Y-84004880D01*
X139884880Y-84199465D01*
X139731995Y-84428273D01*
X139626686Y-84682510D01*
X139573000Y-84952408D01*
X133547541Y-84952408D01*
X129405000Y-80809869D01*
X129405000Y-66095743D01*
X129410490Y-66039999D01*
X129405000Y-65984255D01*
X129405000Y-65984248D01*
X129388577Y-65817501D01*
X129323676Y-65603553D01*
X129218284Y-65406377D01*
X129076449Y-65233551D01*
X129033140Y-65198008D01*
X127841996Y-64006865D01*
X127806449Y-63963551D01*
X127633623Y-63821716D01*
X127436447Y-63716324D01*
X127222499Y-63651423D01*
X127055752Y-63635000D01*
X127055751Y-63635000D01*
X127000000Y-63629509D01*
X126944249Y-63635000D01*
X124513884Y-63635000D01*
X124359727Y-63531995D01*
X124105490Y-63426686D01*
X123835592Y-63373000D01*
X123560408Y-63373000D01*
X123290510Y-63426686D01*
X123036273Y-63531995D01*
X122807465Y-63684880D01*
X122612880Y-63879465D01*
X122459995Y-64108273D01*
X122354686Y-64362510D01*
X122301000Y-64632408D01*
X122301000Y-64907592D01*
X122354686Y-65177490D01*
X122459995Y-65431727D01*
X122612880Y-65660535D01*
X122807465Y-65855120D01*
X123036273Y-66008005D01*
X123290510Y-66113314D01*
X123560408Y-66167000D01*
X123835592Y-66167000D01*
X124105490Y-66113314D01*
X124359727Y-66008005D01*
X124513884Y-65905000D01*
X126529869Y-65905000D01*
X127135001Y-66510133D01*
X127135000Y-80969868D01*
X118989869Y-89115000D01*
X84438072Y-89115000D01*
X84438072Y-89000000D01*
X84425812Y-88875518D01*
X84389502Y-88755820D01*
X84330537Y-88645506D01*
X84251185Y-88548815D01*
X84154494Y-88469463D01*
X84044180Y-88410498D01*
X83924482Y-88374188D01*
X83800000Y-88361928D01*
X81300000Y-88361928D01*
X81175518Y-88374188D01*
X81055820Y-88410498D01*
X80945506Y-88469463D01*
X80848815Y-88548815D01*
X80769463Y-88645506D01*
X80710498Y-88755820D01*
X80674188Y-88875518D01*
X80661928Y-89000000D01*
X78130000Y-89000000D01*
X78130000Y-77377911D01*
X79075000Y-77377911D01*
X79075000Y-77562089D01*
X79110932Y-77742729D01*
X79181414Y-77912889D01*
X79283738Y-78066028D01*
X79413972Y-78196262D01*
X79567111Y-78298586D01*
X79737271Y-78369068D01*
X79917911Y-78405000D01*
X80102089Y-78405000D01*
X80282729Y-78369068D01*
X80452889Y-78298586D01*
X80606028Y-78196262D01*
X80736262Y-78066028D01*
X80838586Y-77912889D01*
X80909068Y-77742729D01*
X80945000Y-77562089D01*
X80945000Y-77377911D01*
X80909068Y-77197271D01*
X80838586Y-77027111D01*
X80736262Y-76873972D01*
X80606028Y-76743738D01*
X80452889Y-76641414D01*
X80282729Y-76570932D01*
X80102089Y-76535000D01*
X79917911Y-76535000D01*
X79737271Y-76570932D01*
X79567111Y-76641414D01*
X79413972Y-76743738D01*
X79283738Y-76873972D01*
X79181414Y-77027111D01*
X79110932Y-77197271D01*
X79075000Y-77377911D01*
X78130000Y-77377911D01*
X78130000Y-74284408D01*
X98933000Y-74284408D01*
X98933000Y-74559592D01*
X98986686Y-74829490D01*
X99091995Y-75083727D01*
X99244880Y-75312535D01*
X99439465Y-75507120D01*
X99668273Y-75660005D01*
X99922510Y-75765314D01*
X100192408Y-75819000D01*
X100467592Y-75819000D01*
X100737490Y-75765314D01*
X100991727Y-75660005D01*
X101220535Y-75507120D01*
X101415120Y-75312535D01*
X101568005Y-75083727D01*
X101673314Y-74829490D01*
X101709485Y-74647646D01*
X114262132Y-62095000D01*
X127545869Y-62095000D01*
X130700515Y-65249647D01*
X130736686Y-65431490D01*
X130841995Y-65685727D01*
X130945001Y-65839886D01*
X130945000Y-69794248D01*
X130939509Y-69850000D01*
X130945000Y-69905751D01*
X130961423Y-70072498D01*
X131026324Y-70286446D01*
X131131716Y-70483623D01*
X131273551Y-70656449D01*
X131316865Y-70691996D01*
X138858009Y-78233141D01*
X138893551Y-78276449D01*
X139066377Y-78418284D01*
X139263553Y-78523676D01*
X139477501Y-78588577D01*
X139644248Y-78605000D01*
X139644257Y-78605000D01*
X139699999Y-78610490D01*
X139755741Y-78605000D01*
X147267635Y-78605000D01*
X174026029Y-105363395D01*
X173836273Y-105441995D01*
X173607465Y-105594880D01*
X173412880Y-105789465D01*
X173259995Y-106018273D01*
X173154686Y-106272510D01*
X173118515Y-106454353D01*
X168439869Y-111133000D01*
X148298133Y-111133000D01*
X147185000Y-110019869D01*
X147185000Y-101655752D01*
X147190491Y-101600000D01*
X147168577Y-101377501D01*
X147103676Y-101163553D01*
X146998284Y-100966377D01*
X146891989Y-100836856D01*
X146891987Y-100836854D01*
X146856449Y-100793551D01*
X146813146Y-100758013D01*
X143081996Y-97026865D01*
X143046449Y-96983551D01*
X142873623Y-96841716D01*
X142676447Y-96736324D01*
X142462499Y-96671423D01*
X142295752Y-96655000D01*
X142295751Y-96655000D01*
X142240000Y-96649509D01*
X142184249Y-96655000D01*
X141785884Y-96655000D01*
X141631727Y-96551995D01*
X141377490Y-96446686D01*
X141107592Y-96393000D01*
X140832408Y-96393000D01*
X140562510Y-96446686D01*
X140308273Y-96551995D01*
X140079465Y-96704880D01*
X139884880Y-96899465D01*
X139731995Y-97128273D01*
X139626686Y-97382510D01*
X139590515Y-97564353D01*
X136142860Y-101012009D01*
X136099552Y-101047551D01*
X135957717Y-101220377D01*
X135901384Y-101325770D01*
X135852324Y-101417554D01*
X135787423Y-101631502D01*
X135765509Y-101854000D01*
X135771001Y-101909761D01*
X135771000Y-105864115D01*
X135667995Y-106018273D01*
X135562686Y-106272510D01*
X135509000Y-106542408D01*
X135509000Y-106817592D01*
X135562686Y-107087490D01*
X135667995Y-107341727D01*
X135820880Y-107570535D01*
X136015465Y-107765120D01*
X136244273Y-107918005D01*
X136498510Y-108023314D01*
X136768408Y-108077000D01*
X137043592Y-108077000D01*
X137313490Y-108023314D01*
X137567727Y-107918005D01*
X137796535Y-107765120D01*
X137991120Y-107570535D01*
X138144005Y-107341727D01*
X138249314Y-107087490D01*
X138303000Y-106817592D01*
X138303000Y-106542408D01*
X138249314Y-106272510D01*
X138144005Y-106018273D01*
X138041000Y-105864116D01*
X138041000Y-102324131D01*
X141195647Y-99169485D01*
X141377490Y-99133314D01*
X141631727Y-99028005D01*
X141776284Y-98931415D01*
X144915001Y-102070134D01*
X144915000Y-110434248D01*
X144909509Y-110490000D01*
X144915000Y-110545751D01*
X144931423Y-110712498D01*
X144996324Y-110926446D01*
X145101716Y-111123623D01*
X145243551Y-111296449D01*
X145286864Y-111331995D01*
X146986013Y-113031146D01*
X147021551Y-113074449D01*
X147064854Y-113109987D01*
X147064856Y-113109989D01*
X147194377Y-113216284D01*
X147391553Y-113321676D01*
X147605501Y-113386577D01*
X147828000Y-113408491D01*
X147883752Y-113403000D01*
X168854249Y-113403000D01*
X168910000Y-113408491D01*
X168965751Y-113403000D01*
X168965752Y-113403000D01*
X169132499Y-113386577D01*
X169346447Y-113321676D01*
X169543623Y-113216284D01*
X169716449Y-113074449D01*
X169751996Y-113031135D01*
X174723647Y-108059485D01*
X174905490Y-108023314D01*
X175159727Y-107918005D01*
X175388535Y-107765120D01*
X175583120Y-107570535D01*
X175736005Y-107341727D01*
X175814605Y-107151971D01*
X195714630Y-127051997D01*
X195715001Y-127055761D01*
X195715001Y-128111312D01*
X195648382Y-128155825D01*
X195385825Y-128418382D01*
X195179534Y-128727118D01*
X195037439Y-129070166D01*
X194965000Y-129434344D01*
X194965000Y-129805656D01*
X195037439Y-130169834D01*
X195179534Y-130512882D01*
X195385825Y-130821618D01*
X195648382Y-131084175D01*
X195957118Y-131290466D01*
X196300166Y-131432561D01*
X196664344Y-131505000D01*
X197035656Y-131505000D01*
X197399834Y-131432561D01*
X197742882Y-131290466D01*
X198051618Y-131084175D01*
X198314175Y-130821618D01*
X198520466Y-130512882D01*
X198662561Y-130169834D01*
X198735000Y-129805656D01*
X198735000Y-129434344D01*
X198662561Y-129070166D01*
X198520466Y-128727118D01*
X198314175Y-128418382D01*
X198051618Y-128155825D01*
X197985000Y-128111312D01*
X197985000Y-127451750D01*
X198007167Y-127424740D01*
X198112559Y-127227564D01*
X198177460Y-127013616D01*
X198199374Y-126791117D01*
X198177460Y-126568618D01*
X198112559Y-126354670D01*
X198007167Y-126157494D01*
X197900872Y-126027973D01*
X197900860Y-126027961D01*
X197865331Y-125984669D01*
X197822039Y-125949140D01*
X150520809Y-78647911D01*
X175595000Y-78647911D01*
X175595000Y-78832089D01*
X175630932Y-79012729D01*
X175701414Y-79182889D01*
X175803738Y-79336028D01*
X175933972Y-79466262D01*
X176087111Y-79568586D01*
X176257271Y-79639068D01*
X176437911Y-79675000D01*
X176622089Y-79675000D01*
X176802729Y-79639068D01*
X176972889Y-79568586D01*
X177126028Y-79466262D01*
X177256262Y-79336028D01*
X177358586Y-79182889D01*
X177429068Y-79012729D01*
X177465000Y-78832089D01*
X177465000Y-78647911D01*
X177429068Y-78467271D01*
X177358586Y-78297111D01*
X177256262Y-78143972D01*
X177126028Y-78013738D01*
X176972889Y-77911414D01*
X176802729Y-77840932D01*
X176622089Y-77805000D01*
X176437911Y-77805000D01*
X176257271Y-77840932D01*
X176087111Y-77911414D01*
X175933972Y-78013738D01*
X175803738Y-78143972D01*
X175701414Y-78297111D01*
X175630932Y-78467271D01*
X175595000Y-78647911D01*
X150520809Y-78647911D01*
X148579762Y-76706865D01*
X148544215Y-76663551D01*
X148371389Y-76521716D01*
X148174213Y-76416324D01*
X147960265Y-76351423D01*
X147793518Y-76335000D01*
X147793517Y-76335000D01*
X147737766Y-76329509D01*
X147682015Y-76335000D01*
X140170132Y-76335000D01*
X136087540Y-72252408D01*
X139573000Y-72252408D01*
X139573000Y-72527592D01*
X139626686Y-72797490D01*
X139731995Y-73051727D01*
X139884880Y-73280535D01*
X140079465Y-73475120D01*
X140308273Y-73628005D01*
X140562510Y-73733314D01*
X140832408Y-73787000D01*
X141107592Y-73787000D01*
X141377490Y-73733314D01*
X141631727Y-73628005D01*
X141860535Y-73475120D01*
X142055120Y-73280535D01*
X142208005Y-73051727D01*
X142313314Y-72797490D01*
X142349485Y-72615646D01*
X159222724Y-55742408D01*
X176911000Y-55742408D01*
X176911000Y-56017592D01*
X176964686Y-56287490D01*
X177069995Y-56541727D01*
X177222880Y-56770535D01*
X177417465Y-56965120D01*
X177646273Y-57118005D01*
X177900510Y-57223314D01*
X178082354Y-57259485D01*
X190635001Y-69812133D01*
X190635000Y-71574115D01*
X190531995Y-71728273D01*
X190426686Y-71982510D01*
X190373000Y-72252408D01*
X190373000Y-72527592D01*
X190426686Y-72797490D01*
X190531995Y-73051727D01*
X190684880Y-73280535D01*
X190879465Y-73475120D01*
X191108273Y-73628005D01*
X191362510Y-73733314D01*
X191632408Y-73787000D01*
X191907592Y-73787000D01*
X192177490Y-73733314D01*
X192431727Y-73628005D01*
X192660535Y-73475120D01*
X192855120Y-73280535D01*
X193008005Y-73051727D01*
X193113314Y-72797490D01*
X193167000Y-72527592D01*
X193167000Y-72252408D01*
X193113314Y-71982510D01*
X193008005Y-71728273D01*
X192905000Y-71574116D01*
X192905000Y-69397751D01*
X192910491Y-69342000D01*
X192888577Y-69119501D01*
X192823676Y-68905553D01*
X192765292Y-68796324D01*
X192718284Y-68708377D01*
X192576449Y-68535551D01*
X192533141Y-68500009D01*
X179687485Y-55654354D01*
X179651314Y-55472510D01*
X179546005Y-55218273D01*
X179393120Y-54989465D01*
X179198535Y-54794880D01*
X178969727Y-54641995D01*
X178715490Y-54536686D01*
X178445592Y-54483000D01*
X178170408Y-54483000D01*
X177900510Y-54536686D01*
X177646273Y-54641995D01*
X177417465Y-54794880D01*
X177222880Y-54989465D01*
X177069995Y-55218273D01*
X176964686Y-55472510D01*
X176911000Y-55742408D01*
X159222724Y-55742408D01*
X161760133Y-53205000D01*
X189799869Y-53205000D01*
X194961928Y-58367060D01*
X194961928Y-59670000D01*
X194974188Y-59794482D01*
X195010498Y-59914180D01*
X195069463Y-60024494D01*
X195148815Y-60121185D01*
X195245506Y-60200537D01*
X195355820Y-60259502D01*
X195475518Y-60295812D01*
X195600000Y-60308072D01*
X198100000Y-60308072D01*
X198224482Y-60295812D01*
X198344180Y-60259502D01*
X198454494Y-60200537D01*
X198551185Y-60121185D01*
X198560001Y-60110442D01*
X198560002Y-76694866D01*
X191544354Y-83710515D01*
X191362510Y-83746686D01*
X191108273Y-83851995D01*
X190879465Y-84004880D01*
X190684880Y-84199465D01*
X190531995Y-84428273D01*
X190426686Y-84682510D01*
X190373000Y-84952408D01*
X190373000Y-85227592D01*
X190426686Y-85497490D01*
X190531995Y-85751727D01*
X190635001Y-85905886D01*
X190635000Y-96974115D01*
X190531995Y-97128273D01*
X190426686Y-97382510D01*
X190373000Y-97652408D01*
X190373000Y-97927592D01*
X190426686Y-98197490D01*
X190531995Y-98451727D01*
X190684880Y-98680535D01*
X190879465Y-98875120D01*
X191108273Y-99028005D01*
X191362510Y-99133314D01*
X191632408Y-99187000D01*
X191907592Y-99187000D01*
X192177490Y-99133314D01*
X192431727Y-99028005D01*
X192660535Y-98875120D01*
X192855120Y-98680535D01*
X193008005Y-98451727D01*
X193113314Y-98197490D01*
X193167000Y-97927592D01*
X193167000Y-97652408D01*
X193113314Y-97382510D01*
X193008005Y-97128273D01*
X192905000Y-96974116D01*
X192905000Y-91347911D01*
X198455000Y-91347911D01*
X198455000Y-91532089D01*
X198490932Y-91712729D01*
X198561414Y-91882889D01*
X198663738Y-92036028D01*
X198793972Y-92166262D01*
X198947111Y-92268586D01*
X199117271Y-92339068D01*
X199297911Y-92375000D01*
X199482089Y-92375000D01*
X199662729Y-92339068D01*
X199832889Y-92268586D01*
X199986028Y-92166262D01*
X200116262Y-92036028D01*
X200218586Y-91882889D01*
X200289068Y-91712729D01*
X200325000Y-91532089D01*
X200325000Y-91347911D01*
X200289068Y-91167271D01*
X200218586Y-90997111D01*
X200116262Y-90843972D01*
X199986028Y-90713738D01*
X199832889Y-90611414D01*
X199662729Y-90540932D01*
X199482089Y-90505000D01*
X199297911Y-90505000D01*
X199117271Y-90540932D01*
X198947111Y-90611414D01*
X198793972Y-90713738D01*
X198663738Y-90843972D01*
X198561414Y-90997111D01*
X198490932Y-91167271D01*
X198455000Y-91347911D01*
X192905000Y-91347911D01*
X192905000Y-85905884D01*
X193008005Y-85751727D01*
X193113314Y-85497490D01*
X193149485Y-85315646D01*
X200458142Y-78006990D01*
X200501450Y-77971448D01*
X200643285Y-77798622D01*
X200748677Y-77601446D01*
X200813578Y-77387498D01*
X200830001Y-77220751D01*
X200835492Y-77164999D01*
X200830001Y-77109247D01*
X200830001Y-55050753D01*
X200835492Y-54995001D01*
X200813578Y-54772502D01*
X200748677Y-54558554D01*
X200643285Y-54361378D01*
X200603485Y-54312882D01*
X200501450Y-54188552D01*
X200458141Y-54153010D01*
X198961996Y-52656865D01*
X198926449Y-52613551D01*
X198753623Y-52471716D01*
X198556447Y-52366324D01*
X198376566Y-52311757D01*
X198314175Y-52218382D01*
X198051618Y-51955825D01*
X197742882Y-51749534D01*
X197399834Y-51607439D01*
X197035656Y-51535000D01*
X196664344Y-51535000D01*
X196300166Y-51607439D01*
X195957118Y-51749534D01*
X195648382Y-51955825D01*
X195385825Y-52218382D01*
X195179534Y-52527118D01*
X195037439Y-52870166D01*
X194965000Y-53234344D01*
X194965000Y-53605656D01*
X195037439Y-53969834D01*
X195179534Y-54312882D01*
X195385825Y-54621618D01*
X195648382Y-54884175D01*
X195957118Y-55090466D01*
X196300166Y-55232561D01*
X196664344Y-55305000D01*
X197035656Y-55305000D01*
X197399834Y-55232561D01*
X197742882Y-55090466D01*
X198008113Y-54913244D01*
X198560001Y-55465133D01*
X198560001Y-56729557D01*
X198551185Y-56718815D01*
X198454494Y-56639463D01*
X198344180Y-56580498D01*
X198224482Y-56544188D01*
X198100000Y-56531928D01*
X196337060Y-56531928D01*
X191111996Y-51306865D01*
X191076449Y-51263551D01*
X190903623Y-51121716D01*
X190706447Y-51016324D01*
X190492499Y-50951423D01*
X190325752Y-50935000D01*
X190325751Y-50935000D01*
X190270000Y-50929509D01*
X190214249Y-50935000D01*
X161345752Y-50935000D01*
X161290000Y-50929509D01*
X161067501Y-50951423D01*
X160853553Y-51016324D01*
X160656377Y-51121716D01*
X160526856Y-51228011D01*
X160526855Y-51228012D01*
X160483551Y-51263551D01*
X160448013Y-51306854D01*
X140744354Y-71010515D01*
X140562510Y-71046686D01*
X140308273Y-71151995D01*
X140079465Y-71304880D01*
X139884880Y-71499465D01*
X139731995Y-71728273D01*
X139626686Y-71982510D01*
X139573000Y-72252408D01*
X136087540Y-72252408D01*
X133215000Y-69379869D01*
X133215000Y-65839884D01*
X133318005Y-65685727D01*
X133423314Y-65431490D01*
X133459485Y-65249646D01*
X141459055Y-57250077D01*
X141594408Y-57277000D01*
X141869592Y-57277000D01*
X142139490Y-57223314D01*
X142393727Y-57118005D01*
X142622535Y-56965120D01*
X142817120Y-56770535D01*
X142970005Y-56541727D01*
X143075314Y-56287490D01*
X143129000Y-56017592D01*
X143129000Y-55742408D01*
X143075314Y-55472510D01*
X142970005Y-55218273D01*
X142817120Y-54989465D01*
X142622535Y-54794880D01*
X142393727Y-54641995D01*
X142139490Y-54536686D01*
X141869592Y-54483000D01*
X141594408Y-54483000D01*
X141324510Y-54536686D01*
X141070273Y-54641995D01*
X140841465Y-54794880D01*
X140819804Y-54816541D01*
X140787553Y-54826324D01*
X140590377Y-54931716D01*
X140460856Y-55038012D01*
X132080000Y-63418869D01*
X128857996Y-60196865D01*
X128822449Y-60153551D01*
X128649623Y-60011716D01*
X128452447Y-59906324D01*
X128238499Y-59841423D01*
X128071752Y-59825000D01*
X128071751Y-59825000D01*
X128016000Y-59819509D01*
X127960249Y-59825000D01*
X113847751Y-59825000D01*
X113792000Y-59819509D01*
X113736248Y-59825000D01*
X113569501Y-59841423D01*
X113355553Y-59906324D01*
X113158377Y-60011716D01*
X112985551Y-60153551D01*
X112950009Y-60196859D01*
X100104354Y-73042515D01*
X99922510Y-73078686D01*
X99668273Y-73183995D01*
X99439465Y-73336880D01*
X99244880Y-73531465D01*
X99091995Y-73760273D01*
X98986686Y-74014510D01*
X98933000Y-74284408D01*
X78130000Y-74284408D01*
X78130000Y-69757911D01*
X98125000Y-69757911D01*
X98125000Y-69942089D01*
X98160932Y-70122729D01*
X98231414Y-70292889D01*
X98333738Y-70446028D01*
X98463972Y-70576262D01*
X98617111Y-70678586D01*
X98787271Y-70749068D01*
X98967911Y-70785000D01*
X99152089Y-70785000D01*
X99332729Y-70749068D01*
X99502889Y-70678586D01*
X99656028Y-70576262D01*
X99786262Y-70446028D01*
X99888586Y-70292889D01*
X99959068Y-70122729D01*
X99995000Y-69942089D01*
X99995000Y-69757911D01*
X99959068Y-69577271D01*
X99888586Y-69407111D01*
X99786262Y-69253972D01*
X99656028Y-69123738D01*
X99502889Y-69021414D01*
X99332729Y-68950932D01*
X99152089Y-68915000D01*
X98967911Y-68915000D01*
X98787271Y-68950932D01*
X98617111Y-69021414D01*
X98463972Y-69123738D01*
X98333738Y-69253972D01*
X98231414Y-69407111D01*
X98160932Y-69577271D01*
X98125000Y-69757911D01*
X78130000Y-69757911D01*
X78130000Y-43087911D01*
X79075000Y-43087911D01*
X79075000Y-43272089D01*
X79110932Y-43452729D01*
X79181414Y-43622889D01*
X79283738Y-43776028D01*
X79413972Y-43906262D01*
X79567111Y-44008586D01*
X79737271Y-44079068D01*
X79917911Y-44115000D01*
X80102089Y-44115000D01*
X80282729Y-44079068D01*
X80452889Y-44008586D01*
X80606028Y-43906262D01*
X80736262Y-43776028D01*
X80838586Y-43622889D01*
X80909068Y-43452729D01*
X80945000Y-43272089D01*
X80945000Y-43087911D01*
X109555000Y-43087911D01*
X109555000Y-43272089D01*
X109590932Y-43452729D01*
X109661414Y-43622889D01*
X109763738Y-43776028D01*
X109893972Y-43906262D01*
X110047111Y-44008586D01*
X110217271Y-44079068D01*
X110397911Y-44115000D01*
X110582089Y-44115000D01*
X110762729Y-44079068D01*
X110932889Y-44008586D01*
X111086028Y-43906262D01*
X111216262Y-43776028D01*
X111318586Y-43622889D01*
X111389068Y-43452729D01*
X111425000Y-43272089D01*
X111425000Y-43087911D01*
X141305000Y-43087911D01*
X141305000Y-43272089D01*
X141340932Y-43452729D01*
X141411414Y-43622889D01*
X141513738Y-43776028D01*
X141643972Y-43906262D01*
X141797111Y-44008586D01*
X141967271Y-44079068D01*
X142147911Y-44115000D01*
X142332089Y-44115000D01*
X142512729Y-44079068D01*
X142682889Y-44008586D01*
X142836028Y-43906262D01*
X142966262Y-43776028D01*
X143068586Y-43622889D01*
X143139068Y-43452729D01*
X143175000Y-43272089D01*
X143175000Y-43087911D01*
X171785000Y-43087911D01*
X171785000Y-43272089D01*
X171820932Y-43452729D01*
X171891414Y-43622889D01*
X171993738Y-43776028D01*
X172123972Y-43906262D01*
X172277111Y-44008586D01*
X172447271Y-44079068D01*
X172627911Y-44115000D01*
X172812089Y-44115000D01*
X172992729Y-44079068D01*
X173162889Y-44008586D01*
X173316028Y-43906262D01*
X173446262Y-43776028D01*
X173548586Y-43622889D01*
X173619068Y-43452729D01*
X173655000Y-43272089D01*
X173655000Y-43087911D01*
X198455000Y-43087911D01*
X198455000Y-43272089D01*
X198490932Y-43452729D01*
X198561414Y-43622889D01*
X198663738Y-43776028D01*
X198793972Y-43906262D01*
X198947111Y-44008586D01*
X199117271Y-44079068D01*
X199297911Y-44115000D01*
X199482089Y-44115000D01*
X199662729Y-44079068D01*
X199832889Y-44008586D01*
X199986028Y-43906262D01*
X200116262Y-43776028D01*
X200218586Y-43622889D01*
X200289068Y-43452729D01*
X200325000Y-43272089D01*
X200325000Y-43087911D01*
X200289068Y-42907271D01*
X200218586Y-42737111D01*
X200116262Y-42583972D01*
X199986028Y-42453738D01*
X199832889Y-42351414D01*
X199662729Y-42280932D01*
X199482089Y-42245000D01*
X199297911Y-42245000D01*
X199117271Y-42280932D01*
X198947111Y-42351414D01*
X198793972Y-42453738D01*
X198663738Y-42583972D01*
X198561414Y-42737111D01*
X198490932Y-42907271D01*
X198455000Y-43087911D01*
X173655000Y-43087911D01*
X173619068Y-42907271D01*
X173548586Y-42737111D01*
X173446262Y-42583972D01*
X173316028Y-42453738D01*
X173162889Y-42351414D01*
X172992729Y-42280932D01*
X172812089Y-42245000D01*
X172627911Y-42245000D01*
X172447271Y-42280932D01*
X172277111Y-42351414D01*
X172123972Y-42453738D01*
X171993738Y-42583972D01*
X171891414Y-42737111D01*
X171820932Y-42907271D01*
X171785000Y-43087911D01*
X143175000Y-43087911D01*
X143139068Y-42907271D01*
X143068586Y-42737111D01*
X142966262Y-42583972D01*
X142836028Y-42453738D01*
X142682889Y-42351414D01*
X142512729Y-42280932D01*
X142332089Y-42245000D01*
X142147911Y-42245000D01*
X141967271Y-42280932D01*
X141797111Y-42351414D01*
X141643972Y-42453738D01*
X141513738Y-42583972D01*
X141411414Y-42737111D01*
X141340932Y-42907271D01*
X141305000Y-43087911D01*
X111425000Y-43087911D01*
X111389068Y-42907271D01*
X111318586Y-42737111D01*
X111216262Y-42583972D01*
X111086028Y-42453738D01*
X110932889Y-42351414D01*
X110762729Y-42280932D01*
X110582089Y-42245000D01*
X110397911Y-42245000D01*
X110217271Y-42280932D01*
X110047111Y-42351414D01*
X109893972Y-42453738D01*
X109763738Y-42583972D01*
X109661414Y-42737111D01*
X109590932Y-42907271D01*
X109555000Y-43087911D01*
X80945000Y-43087911D01*
X80909068Y-42907271D01*
X80838586Y-42737111D01*
X80736262Y-42583972D01*
X80606028Y-42453738D01*
X80452889Y-42351414D01*
X80282729Y-42280932D01*
X80102089Y-42245000D01*
X79917911Y-42245000D01*
X79737271Y-42280932D01*
X79567111Y-42351414D01*
X79413972Y-42453738D01*
X79283738Y-42583972D01*
X79181414Y-42737111D01*
X79110932Y-42907271D01*
X79075000Y-43087911D01*
X78130000Y-43087911D01*
X78130000Y-41300000D01*
X201270000Y-41300000D01*
X201270001Y-142850000D01*
X201270001Y-142850000D01*
G37*
X201270001Y-142850000D02*
X78130000Y-142850000D01*
X78130000Y-140877911D01*
X79075000Y-140877911D01*
X79075000Y-141062089D01*
X79110932Y-141242729D01*
X79181414Y-141412889D01*
X79283738Y-141566028D01*
X79413972Y-141696262D01*
X79567111Y-141798586D01*
X79737271Y-141869068D01*
X79917911Y-141905000D01*
X80102089Y-141905000D01*
X80282729Y-141869068D01*
X80452889Y-141798586D01*
X80606028Y-141696262D01*
X80736262Y-141566028D01*
X80838586Y-141412889D01*
X80909068Y-141242729D01*
X80945000Y-141062089D01*
X80945000Y-140877911D01*
X108285000Y-140877911D01*
X108285000Y-141062089D01*
X108320932Y-141242729D01*
X108391414Y-141412889D01*
X108493738Y-141566028D01*
X108623972Y-141696262D01*
X108777111Y-141798586D01*
X108947271Y-141869068D01*
X109127911Y-141905000D01*
X109312089Y-141905000D01*
X109492729Y-141869068D01*
X109662889Y-141798586D01*
X109816028Y-141696262D01*
X109946262Y-141566028D01*
X110048586Y-141412889D01*
X110119068Y-141242729D01*
X110155000Y-141062089D01*
X110155000Y-140877911D01*
X141305000Y-140877911D01*
X141305000Y-141062089D01*
X141340932Y-141242729D01*
X141411414Y-141412889D01*
X141513738Y-141566028D01*
X141643972Y-141696262D01*
X141797111Y-141798586D01*
X141967271Y-141869068D01*
X142147911Y-141905000D01*
X142332089Y-141905000D01*
X142512729Y-141869068D01*
X142682889Y-141798586D01*
X142836028Y-141696262D01*
X142966262Y-141566028D01*
X143068586Y-141412889D01*
X143139068Y-141242729D01*
X143175000Y-141062089D01*
X143175000Y-140877911D01*
X143139068Y-140697271D01*
X143068586Y-140527111D01*
X142966262Y-140373972D01*
X142836028Y-140243738D01*
X142682889Y-140141414D01*
X142512729Y-140070932D01*
X142332089Y-140035000D01*
X142147911Y-140035000D01*
X141967271Y-140070932D01*
X141797111Y-140141414D01*
X141643972Y-140243738D01*
X141513738Y-140373972D01*
X141411414Y-140527111D01*
X141340932Y-140697271D01*
X141305000Y-140877911D01*
X110155000Y-140877911D01*
X110119068Y-140697271D01*
X110048586Y-140527111D01*
X109946262Y-140373972D01*
X109816028Y-140243738D01*
X109662889Y-140141414D01*
X109492729Y-140070932D01*
X109312089Y-140035000D01*
X109127911Y-140035000D01*
X108947271Y-140070932D01*
X108777111Y-140141414D01*
X108623972Y-140243738D01*
X108493738Y-140373972D01*
X108391414Y-140527111D01*
X108320932Y-140697271D01*
X108285000Y-140877911D01*
X80945000Y-140877911D01*
X80909068Y-140697271D01*
X80838586Y-140527111D01*
X80736262Y-140373972D01*
X80606028Y-140243738D01*
X80452889Y-140141414D01*
X80282729Y-140070932D01*
X80102089Y-140035000D01*
X79917911Y-140035000D01*
X79737271Y-140070932D01*
X79567111Y-140141414D01*
X79413972Y-140243738D01*
X79283738Y-140373972D01*
X79181414Y-140527111D01*
X79110932Y-140697271D01*
X79075000Y-140877911D01*
X78130000Y-140877911D01*
X78130000Y-109127911D01*
X79075000Y-109127911D01*
X79075000Y-109312089D01*
X79110932Y-109492729D01*
X79181414Y-109662889D01*
X79283738Y-109816028D01*
X79413972Y-109946262D01*
X79567111Y-110048586D01*
X79737271Y-110119068D01*
X79917911Y-110155000D01*
X80102089Y-110155000D01*
X80282729Y-110119068D01*
X80452889Y-110048586D01*
X80606028Y-109946262D01*
X80736262Y-109816028D01*
X80838586Y-109662889D01*
X80909068Y-109492729D01*
X80945000Y-109312089D01*
X80945000Y-109127911D01*
X80909068Y-108947271D01*
X80838586Y-108777111D01*
X80736262Y-108623972D01*
X80606028Y-108493738D01*
X80452889Y-108391414D01*
X80282729Y-108320932D01*
X80102089Y-108285000D01*
X79917911Y-108285000D01*
X79737271Y-108320932D01*
X79567111Y-108391414D01*
X79413972Y-108493738D01*
X79283738Y-108623972D01*
X79181414Y-108777111D01*
X79110932Y-108947271D01*
X79075000Y-109127911D01*
X78130000Y-109127911D01*
X78130000Y-106542408D01*
X87757000Y-106542408D01*
X87757000Y-106817592D01*
X87810686Y-107087490D01*
X87915995Y-107341727D01*
X88019000Y-107495885D01*
X88019001Y-114244239D01*
X88013509Y-114300000D01*
X88035423Y-114522498D01*
X88100324Y-114736446D01*
X88100325Y-114736447D01*
X88205717Y-114933623D01*
X88347552Y-115106449D01*
X88390860Y-115141991D01*
X94124515Y-120875647D01*
X94160686Y-121057490D01*
X94265995Y-121311727D01*
X94418880Y-121540535D01*
X94613465Y-121735120D01*
X94842273Y-121888005D01*
X95096510Y-121993314D01*
X95278354Y-122029485D01*
X111123856Y-137874988D01*
X111253377Y-137981284D01*
X111296608Y-138004392D01*
X111319716Y-138047623D01*
X111461551Y-138220449D01*
X111634377Y-138362284D01*
X111831553Y-138467676D01*
X112045501Y-138532577D01*
X112212248Y-138549000D01*
X149389869Y-138549000D01*
X151020515Y-140179647D01*
X151056686Y-140361490D01*
X151161995Y-140615727D01*
X151314880Y-140844535D01*
X151509465Y-141039120D01*
X151738273Y-141192005D01*
X151992510Y-141297314D01*
X152262408Y-141351000D01*
X152537592Y-141351000D01*
X152807490Y-141297314D01*
X153061727Y-141192005D01*
X153290535Y-141039120D01*
X153451744Y-140877911D01*
X175595000Y-140877911D01*
X175595000Y-141062089D01*
X175630932Y-141242729D01*
X175701414Y-141412889D01*
X175803738Y-141566028D01*
X175933972Y-141696262D01*
X176087111Y-141798586D01*
X176257271Y-141869068D01*
X176437911Y-141905000D01*
X176622089Y-141905000D01*
X176802729Y-141869068D01*
X176972889Y-141798586D01*
X177126028Y-141696262D01*
X177256262Y-141566028D01*
X177358586Y-141412889D01*
X177429068Y-141242729D01*
X177465000Y-141062089D01*
X177465000Y-140877911D01*
X177429068Y-140697271D01*
X177358586Y-140527111D01*
X177256262Y-140373972D01*
X177126028Y-140243738D01*
X176972889Y-140141414D01*
X176802729Y-140070932D01*
X176622089Y-140035000D01*
X176437911Y-140035000D01*
X176257271Y-140070932D01*
X176087111Y-140141414D01*
X175933972Y-140243738D01*
X175803738Y-140373972D01*
X175701414Y-140527111D01*
X175630932Y-140697271D01*
X175595000Y-140877911D01*
X153451744Y-140877911D01*
X153485120Y-140844535D01*
X153638005Y-140615727D01*
X153743314Y-140361490D01*
X153797000Y-140091592D01*
X153797000Y-139816408D01*
X153743314Y-139546510D01*
X153638005Y-139292273D01*
X153485120Y-139063465D01*
X153290535Y-138868880D01*
X153061727Y-138715995D01*
X152807490Y-138610686D01*
X152625647Y-138574515D01*
X150701996Y-136650865D01*
X150666449Y-136607551D01*
X150493623Y-136465716D01*
X150296447Y-136360324D01*
X150082499Y-136295423D01*
X149915752Y-136279000D01*
X149915751Y-136279000D01*
X149860000Y-136273509D01*
X149804249Y-136279000D01*
X112736492Y-136279000D01*
X112728988Y-136269856D01*
X96883485Y-120424354D01*
X96847314Y-120242510D01*
X96742005Y-119988273D01*
X96589120Y-119759465D01*
X96394535Y-119564880D01*
X96165727Y-119411995D01*
X95911490Y-119306686D01*
X95729647Y-119270515D01*
X90289000Y-113829869D01*
X90289000Y-107495884D01*
X90392005Y-107341727D01*
X90497314Y-107087490D01*
X90551000Y-106817592D01*
X90551000Y-106542408D01*
X90497314Y-106272510D01*
X90392005Y-106018273D01*
X90239120Y-105789465D01*
X90044535Y-105594880D01*
X89815727Y-105441995D01*
X89561490Y-105336686D01*
X89291592Y-105283000D01*
X89016408Y-105283000D01*
X88746510Y-105336686D01*
X88492273Y-105441995D01*
X88263465Y-105594880D01*
X88068880Y-105789465D01*
X87915995Y-106018273D01*
X87810686Y-106272510D01*
X87757000Y-106542408D01*
X78130000Y-106542408D01*
X78130000Y-95064344D01*
X80665000Y-95064344D01*
X80665000Y-95435656D01*
X80737439Y-95799834D01*
X80879534Y-96142882D01*
X81085825Y-96451618D01*
X81348382Y-96714175D01*
X81657118Y-96920466D01*
X82000166Y-97062561D01*
X82364344Y-97135000D01*
X82735656Y-97135000D01*
X83099834Y-97062561D01*
X83442882Y-96920466D01*
X83751618Y-96714175D01*
X84014175Y-96451618D01*
X84058688Y-96385000D01*
X85889869Y-96385000D01*
X110918009Y-121413141D01*
X110953551Y-121456449D01*
X111126377Y-121598284D01*
X111323553Y-121703676D01*
X111537501Y-121768577D01*
X111704248Y-121785000D01*
X111704257Y-121785000D01*
X111759999Y-121790490D01*
X111815741Y-121785000D01*
X117040116Y-121785000D01*
X117194273Y-121888005D01*
X117448510Y-121993314D01*
X117718408Y-122047000D01*
X117993592Y-122047000D01*
X118263490Y-121993314D01*
X118517727Y-121888005D01*
X118671884Y-121785000D01*
X121864249Y-121785000D01*
X121920000Y-121790491D01*
X121975751Y-121785000D01*
X121975752Y-121785000D01*
X122142499Y-121768577D01*
X122356447Y-121703676D01*
X122553623Y-121598284D01*
X122726449Y-121456449D01*
X122761996Y-121413135D01*
X132080000Y-112095132D01*
X146478013Y-126493146D01*
X146513551Y-126536449D01*
X146556854Y-126571987D01*
X146556856Y-126571989D01*
X146686377Y-126678284D01*
X146883553Y-126783676D01*
X147097501Y-126848577D01*
X147320000Y-126870491D01*
X147375752Y-126865000D01*
X173265869Y-126865000D01*
X187342515Y-140941647D01*
X187378686Y-141123490D01*
X187483995Y-141377727D01*
X187636880Y-141606535D01*
X187831465Y-141801120D01*
X188060273Y-141954005D01*
X188314510Y-142059314D01*
X188584408Y-142113000D01*
X188859592Y-142113000D01*
X189129490Y-142059314D01*
X189383727Y-141954005D01*
X189537884Y-141851000D01*
X190698249Y-141851000D01*
X190754000Y-141856491D01*
X190809751Y-141851000D01*
X190809752Y-141851000D01*
X190976499Y-141834577D01*
X191190447Y-141769676D01*
X191387623Y-141664284D01*
X191560449Y-141522449D01*
X191595996Y-141479136D01*
X192197221Y-140877911D01*
X198455000Y-140877911D01*
X198455000Y-141062089D01*
X198490932Y-141242729D01*
X198561414Y-141412889D01*
X198663738Y-141566028D01*
X198793972Y-141696262D01*
X198947111Y-141798586D01*
X199117271Y-141869068D01*
X199297911Y-141905000D01*
X199482089Y-141905000D01*
X199662729Y-141869068D01*
X199832889Y-141798586D01*
X199986028Y-141696262D01*
X200116262Y-141566028D01*
X200218586Y-141412889D01*
X200289068Y-141242729D01*
X200325000Y-141062089D01*
X200325000Y-140877911D01*
X200289068Y-140697271D01*
X200218586Y-140527111D01*
X200116262Y-140373972D01*
X199986028Y-140243738D01*
X199832889Y-140141414D01*
X199662729Y-140070932D01*
X199482089Y-140035000D01*
X199297911Y-140035000D01*
X199117271Y-140070932D01*
X198947111Y-140141414D01*
X198793972Y-140243738D01*
X198663738Y-140373972D01*
X198561414Y-140527111D01*
X198490932Y-140697271D01*
X198455000Y-140877911D01*
X192197221Y-140877911D01*
X192533140Y-140541992D01*
X192576449Y-140506449D01*
X192718284Y-140333623D01*
X192823676Y-140136447D01*
X192888577Y-139922499D01*
X192905000Y-139755752D01*
X192910491Y-139700000D01*
X192905000Y-139644249D01*
X192905000Y-137630131D01*
X194780132Y-135755000D01*
X194961928Y-135755000D01*
X194961928Y-135870000D01*
X194974188Y-135994482D01*
X195010498Y-136114180D01*
X195069463Y-136224494D01*
X195148815Y-136321185D01*
X195245506Y-136400537D01*
X195355820Y-136459502D01*
X195475518Y-136495812D01*
X195600000Y-136508072D01*
X198100000Y-136508072D01*
X198224482Y-136495812D01*
X198344180Y-136459502D01*
X198454494Y-136400537D01*
X198551185Y-136321185D01*
X198630537Y-136224494D01*
X198689502Y-136114180D01*
X198725812Y-135994482D01*
X198738072Y-135870000D01*
X198738072Y-133370000D01*
X198725812Y-133245518D01*
X198689502Y-133125820D01*
X198630537Y-133015506D01*
X198551185Y-132918815D01*
X198454494Y-132839463D01*
X198344180Y-132780498D01*
X198224482Y-132744188D01*
X198100000Y-132731928D01*
X195600000Y-132731928D01*
X195475518Y-132744188D01*
X195355820Y-132780498D01*
X195245506Y-132839463D01*
X195148815Y-132918815D01*
X195069463Y-133015506D01*
X195010498Y-133125820D01*
X194974188Y-133245518D01*
X194961928Y-133370000D01*
X194961928Y-133485000D01*
X194365741Y-133485000D01*
X194309999Y-133479510D01*
X194254257Y-133485000D01*
X194254248Y-133485000D01*
X194087501Y-133501423D01*
X193873553Y-133566324D01*
X193676377Y-133671716D01*
X193503551Y-133813551D01*
X193468009Y-133856859D01*
X191006865Y-136318004D01*
X190963551Y-136353551D01*
X190821716Y-136526377D01*
X190716325Y-136723553D01*
X190716324Y-136723554D01*
X190651423Y-136937502D01*
X190629509Y-137160000D01*
X190635000Y-137215752D01*
X190635001Y-139229868D01*
X190283869Y-139581000D01*
X189537884Y-139581000D01*
X189383727Y-139477995D01*
X189129490Y-139372686D01*
X188947647Y-139336515D01*
X174577996Y-124966865D01*
X174542449Y-124923551D01*
X174369623Y-124781716D01*
X174172447Y-124676324D01*
X173958499Y-124611423D01*
X173791752Y-124595000D01*
X173791751Y-124595000D01*
X173736000Y-124589509D01*
X173680249Y-124595000D01*
X147790133Y-124595000D01*
X142483044Y-119287911D01*
X175595000Y-119287911D01*
X175595000Y-119472089D01*
X175630932Y-119652729D01*
X175701414Y-119822889D01*
X175803738Y-119976028D01*
X175933972Y-120106262D01*
X176087111Y-120208586D01*
X176257271Y-120279068D01*
X176437911Y-120315000D01*
X176622089Y-120315000D01*
X176802729Y-120279068D01*
X176972889Y-120208586D01*
X177126028Y-120106262D01*
X177256262Y-119976028D01*
X177358586Y-119822889D01*
X177429068Y-119652729D01*
X177465000Y-119472089D01*
X177465000Y-119287911D01*
X177429068Y-119107271D01*
X177358586Y-118937111D01*
X177256262Y-118783972D01*
X177126028Y-118653738D01*
X176972889Y-118551414D01*
X176802729Y-118480932D01*
X176622089Y-118445000D01*
X176437911Y-118445000D01*
X176257271Y-118480932D01*
X176087111Y-118551414D01*
X175933972Y-118653738D01*
X175803738Y-118783972D01*
X175701414Y-118937111D01*
X175630932Y-119107271D01*
X175595000Y-119287911D01*
X142483044Y-119287911D01*
X133215000Y-110019869D01*
X133215000Y-93271884D01*
X133318005Y-93117727D01*
X133423314Y-92863490D01*
X133477000Y-92593592D01*
X133477000Y-92318408D01*
X133423314Y-92048510D01*
X133318005Y-91794273D01*
X133165120Y-91565465D01*
X132970535Y-91370880D01*
X132741727Y-91217995D01*
X132487490Y-91112686D01*
X132217592Y-91059000D01*
X131942408Y-91059000D01*
X131672510Y-91112686D01*
X131418273Y-91217995D01*
X131189465Y-91370880D01*
X130994880Y-91565465D01*
X130841995Y-91794273D01*
X130736686Y-92048510D01*
X130683000Y-92318408D01*
X130683000Y-92593592D01*
X130736686Y-92863490D01*
X130841995Y-93117727D01*
X130945000Y-93271885D01*
X130945001Y-110019867D01*
X121449869Y-119515000D01*
X118671884Y-119515000D01*
X118517727Y-119411995D01*
X118263490Y-119306686D01*
X117993592Y-119253000D01*
X117718408Y-119253000D01*
X117448510Y-119306686D01*
X117194273Y-119411995D01*
X117040116Y-119515000D01*
X112230132Y-119515000D01*
X94223043Y-101507911D01*
X114635000Y-101507911D01*
X114635000Y-101692089D01*
X114670932Y-101872729D01*
X114741414Y-102042889D01*
X114843738Y-102196028D01*
X114973972Y-102326262D01*
X115127111Y-102428586D01*
X115297271Y-102499068D01*
X115477911Y-102535000D01*
X115662089Y-102535000D01*
X115842729Y-102499068D01*
X116012889Y-102428586D01*
X116166028Y-102326262D01*
X116296262Y-102196028D01*
X116398586Y-102042889D01*
X116469068Y-101872729D01*
X116505000Y-101692089D01*
X116505000Y-101507911D01*
X116469068Y-101327271D01*
X116398586Y-101157111D01*
X116296262Y-101003972D01*
X116166028Y-100873738D01*
X116012889Y-100771414D01*
X115842729Y-100700932D01*
X115662089Y-100665000D01*
X115477911Y-100665000D01*
X115297271Y-100700932D01*
X115127111Y-100771414D01*
X114973972Y-100873738D01*
X114843738Y-101003972D01*
X114741414Y-101157111D01*
X114670932Y-101327271D01*
X114635000Y-101507911D01*
X94223043Y-101507911D01*
X87201996Y-94486865D01*
X87166449Y-94443551D01*
X86993623Y-94301716D01*
X86796447Y-94196324D01*
X86582499Y-94131423D01*
X86415752Y-94115000D01*
X86415751Y-94115000D01*
X86360000Y-94109509D01*
X86304249Y-94115000D01*
X84058688Y-94115000D01*
X84014175Y-94048382D01*
X83751618Y-93785825D01*
X83442882Y-93579534D01*
X83099834Y-93437439D01*
X82735656Y-93365000D01*
X82364344Y-93365000D01*
X82000166Y-93437439D01*
X81657118Y-93579534D01*
X81348382Y-93785825D01*
X81085825Y-94048382D01*
X80879534Y-94357118D01*
X80737439Y-94700166D01*
X80665000Y-95064344D01*
X78130000Y-95064344D01*
X78130000Y-89000000D01*
X80661928Y-89000000D01*
X80661928Y-91500000D01*
X80674188Y-91624482D01*
X80710498Y-91744180D01*
X80769463Y-91854494D01*
X80848815Y-91951185D01*
X80945506Y-92030537D01*
X81055820Y-92089502D01*
X81175518Y-92125812D01*
X81300000Y-92138072D01*
X83800000Y-92138072D01*
X83924482Y-92125812D01*
X84044180Y-92089502D01*
X84154494Y-92030537D01*
X84251185Y-91951185D01*
X84330537Y-91854494D01*
X84389502Y-91744180D01*
X84425812Y-91624482D01*
X84438072Y-91500000D01*
X84438072Y-91385000D01*
X119404249Y-91385000D01*
X119460000Y-91390491D01*
X119515751Y-91385000D01*
X119515752Y-91385000D01*
X119682499Y-91368577D01*
X119896447Y-91303676D01*
X120093623Y-91198284D01*
X120266449Y-91056449D01*
X120301996Y-91013135D01*
X128350000Y-82965132D01*
X136318013Y-90933146D01*
X136353551Y-90976449D01*
X136396854Y-91011987D01*
X136396856Y-91011989D01*
X136526377Y-91118284D01*
X136723553Y-91223676D01*
X136937501Y-91288577D01*
X137160000Y-91310491D01*
X137215752Y-91305000D01*
X144309869Y-91305000D01*
X151265001Y-98260133D01*
X151265000Y-105610115D01*
X151161995Y-105764273D01*
X151056686Y-106018510D01*
X151003000Y-106288408D01*
X151003000Y-106563592D01*
X151056686Y-106833490D01*
X151161995Y-107087727D01*
X151314880Y-107316535D01*
X151509465Y-107511120D01*
X151738273Y-107664005D01*
X151992510Y-107769314D01*
X152262408Y-107823000D01*
X152537592Y-107823000D01*
X152807490Y-107769314D01*
X153061727Y-107664005D01*
X153290535Y-107511120D01*
X153485120Y-107316535D01*
X153638005Y-107087727D01*
X153743314Y-106833490D01*
X153797000Y-106563592D01*
X153797000Y-106288408D01*
X153743314Y-106018510D01*
X153638005Y-105764273D01*
X153535000Y-105610116D01*
X153535000Y-97845741D01*
X153540490Y-97789999D01*
X153535000Y-97734257D01*
X153535000Y-97734248D01*
X153518577Y-97567501D01*
X153453676Y-97353553D01*
X153348284Y-97156377D01*
X153206449Y-96983551D01*
X153163141Y-96948009D01*
X145621996Y-89406865D01*
X145586449Y-89363551D01*
X145413623Y-89221716D01*
X145216447Y-89116324D01*
X145002499Y-89051423D01*
X144835752Y-89035000D01*
X144835751Y-89035000D01*
X144780000Y-89029509D01*
X144724249Y-89035000D01*
X137630133Y-89035000D01*
X133547541Y-84952408D01*
X139573000Y-84952408D01*
X139573000Y-85227592D01*
X139626686Y-85497490D01*
X139731995Y-85751727D01*
X139884880Y-85980535D01*
X140079465Y-86175120D01*
X140308273Y-86328005D01*
X140562510Y-86433314D01*
X140832408Y-86487000D01*
X141107592Y-86487000D01*
X141377490Y-86433314D01*
X141631727Y-86328005D01*
X141860535Y-86175120D01*
X142055120Y-85980535D01*
X142208005Y-85751727D01*
X142313314Y-85497490D01*
X142367000Y-85227592D01*
X142367000Y-84997911D01*
X147655000Y-84997911D01*
X147655000Y-85182089D01*
X147690932Y-85362729D01*
X147761414Y-85532889D01*
X147863738Y-85686028D01*
X147993972Y-85816262D01*
X148147111Y-85918586D01*
X148317271Y-85989068D01*
X148497911Y-86025000D01*
X148682089Y-86025000D01*
X148862729Y-85989068D01*
X149032889Y-85918586D01*
X149186028Y-85816262D01*
X149316262Y-85686028D01*
X149418586Y-85532889D01*
X149489068Y-85362729D01*
X149525000Y-85182089D01*
X149525000Y-84997911D01*
X149489068Y-84817271D01*
X149418586Y-84647111D01*
X149316262Y-84493972D01*
X149186028Y-84363738D01*
X149032889Y-84261414D01*
X148862729Y-84190932D01*
X148682089Y-84155000D01*
X148497911Y-84155000D01*
X148317271Y-84190932D01*
X148147111Y-84261414D01*
X147993972Y-84363738D01*
X147863738Y-84493972D01*
X147761414Y-84647111D01*
X147690932Y-84817271D01*
X147655000Y-84997911D01*
X142367000Y-84997911D01*
X142367000Y-84952408D01*
X142313314Y-84682510D01*
X142208005Y-84428273D01*
X142055120Y-84199465D01*
X141860535Y-84004880D01*
X141631727Y-83851995D01*
X141377490Y-83746686D01*
X141107592Y-83693000D01*
X140832408Y-83693000D01*
X140562510Y-83746686D01*
X140308273Y-83851995D01*
X140079465Y-84004880D01*
X139884880Y-84199465D01*
X139731995Y-84428273D01*
X139626686Y-84682510D01*
X139573000Y-84952408D01*
X133547541Y-84952408D01*
X129405000Y-80809869D01*
X129405000Y-66095743D01*
X129410490Y-66039999D01*
X129405000Y-65984255D01*
X129405000Y-65984248D01*
X129388577Y-65817501D01*
X129323676Y-65603553D01*
X129218284Y-65406377D01*
X129076449Y-65233551D01*
X129033140Y-65198008D01*
X127841996Y-64006865D01*
X127806449Y-63963551D01*
X127633623Y-63821716D01*
X127436447Y-63716324D01*
X127222499Y-63651423D01*
X127055752Y-63635000D01*
X127055751Y-63635000D01*
X127000000Y-63629509D01*
X126944249Y-63635000D01*
X124513884Y-63635000D01*
X124359727Y-63531995D01*
X124105490Y-63426686D01*
X123835592Y-63373000D01*
X123560408Y-63373000D01*
X123290510Y-63426686D01*
X123036273Y-63531995D01*
X122807465Y-63684880D01*
X122612880Y-63879465D01*
X122459995Y-64108273D01*
X122354686Y-64362510D01*
X122301000Y-64632408D01*
X122301000Y-64907592D01*
X122354686Y-65177490D01*
X122459995Y-65431727D01*
X122612880Y-65660535D01*
X122807465Y-65855120D01*
X123036273Y-66008005D01*
X123290510Y-66113314D01*
X123560408Y-66167000D01*
X123835592Y-66167000D01*
X124105490Y-66113314D01*
X124359727Y-66008005D01*
X124513884Y-65905000D01*
X126529869Y-65905000D01*
X127135001Y-66510133D01*
X127135000Y-80969868D01*
X118989869Y-89115000D01*
X84438072Y-89115000D01*
X84438072Y-89000000D01*
X84425812Y-88875518D01*
X84389502Y-88755820D01*
X84330537Y-88645506D01*
X84251185Y-88548815D01*
X84154494Y-88469463D01*
X84044180Y-88410498D01*
X83924482Y-88374188D01*
X83800000Y-88361928D01*
X81300000Y-88361928D01*
X81175518Y-88374188D01*
X81055820Y-88410498D01*
X80945506Y-88469463D01*
X80848815Y-88548815D01*
X80769463Y-88645506D01*
X80710498Y-88755820D01*
X80674188Y-88875518D01*
X80661928Y-89000000D01*
X78130000Y-89000000D01*
X78130000Y-77377911D01*
X79075000Y-77377911D01*
X79075000Y-77562089D01*
X79110932Y-77742729D01*
X79181414Y-77912889D01*
X79283738Y-78066028D01*
X79413972Y-78196262D01*
X79567111Y-78298586D01*
X79737271Y-78369068D01*
X79917911Y-78405000D01*
X80102089Y-78405000D01*
X80282729Y-78369068D01*
X80452889Y-78298586D01*
X80606028Y-78196262D01*
X80736262Y-78066028D01*
X80838586Y-77912889D01*
X80909068Y-77742729D01*
X80945000Y-77562089D01*
X80945000Y-77377911D01*
X80909068Y-77197271D01*
X80838586Y-77027111D01*
X80736262Y-76873972D01*
X80606028Y-76743738D01*
X80452889Y-76641414D01*
X80282729Y-76570932D01*
X80102089Y-76535000D01*
X79917911Y-76535000D01*
X79737271Y-76570932D01*
X79567111Y-76641414D01*
X79413972Y-76743738D01*
X79283738Y-76873972D01*
X79181414Y-77027111D01*
X79110932Y-77197271D01*
X79075000Y-77377911D01*
X78130000Y-77377911D01*
X78130000Y-74284408D01*
X98933000Y-74284408D01*
X98933000Y-74559592D01*
X98986686Y-74829490D01*
X99091995Y-75083727D01*
X99244880Y-75312535D01*
X99439465Y-75507120D01*
X99668273Y-75660005D01*
X99922510Y-75765314D01*
X100192408Y-75819000D01*
X100467592Y-75819000D01*
X100737490Y-75765314D01*
X100991727Y-75660005D01*
X101220535Y-75507120D01*
X101415120Y-75312535D01*
X101568005Y-75083727D01*
X101673314Y-74829490D01*
X101709485Y-74647646D01*
X114262132Y-62095000D01*
X127545869Y-62095000D01*
X130700515Y-65249647D01*
X130736686Y-65431490D01*
X130841995Y-65685727D01*
X130945001Y-65839886D01*
X130945000Y-69794248D01*
X130939509Y-69850000D01*
X130945000Y-69905751D01*
X130961423Y-70072498D01*
X131026324Y-70286446D01*
X131131716Y-70483623D01*
X131273551Y-70656449D01*
X131316865Y-70691996D01*
X138858009Y-78233141D01*
X138893551Y-78276449D01*
X139066377Y-78418284D01*
X139263553Y-78523676D01*
X139477501Y-78588577D01*
X139644248Y-78605000D01*
X139644257Y-78605000D01*
X139699999Y-78610490D01*
X139755741Y-78605000D01*
X147267635Y-78605000D01*
X174026029Y-105363395D01*
X173836273Y-105441995D01*
X173607465Y-105594880D01*
X173412880Y-105789465D01*
X173259995Y-106018273D01*
X173154686Y-106272510D01*
X173118515Y-106454353D01*
X168439869Y-111133000D01*
X148298133Y-111133000D01*
X147185000Y-110019869D01*
X147185000Y-101655752D01*
X147190491Y-101600000D01*
X147168577Y-101377501D01*
X147103676Y-101163553D01*
X146998284Y-100966377D01*
X146891989Y-100836856D01*
X146891987Y-100836854D01*
X146856449Y-100793551D01*
X146813146Y-100758013D01*
X143081996Y-97026865D01*
X143046449Y-96983551D01*
X142873623Y-96841716D01*
X142676447Y-96736324D01*
X142462499Y-96671423D01*
X142295752Y-96655000D01*
X142295751Y-96655000D01*
X142240000Y-96649509D01*
X142184249Y-96655000D01*
X141785884Y-96655000D01*
X141631727Y-96551995D01*
X141377490Y-96446686D01*
X141107592Y-96393000D01*
X140832408Y-96393000D01*
X140562510Y-96446686D01*
X140308273Y-96551995D01*
X140079465Y-96704880D01*
X139884880Y-96899465D01*
X139731995Y-97128273D01*
X139626686Y-97382510D01*
X139590515Y-97564353D01*
X136142860Y-101012009D01*
X136099552Y-101047551D01*
X135957717Y-101220377D01*
X135901384Y-101325770D01*
X135852324Y-101417554D01*
X135787423Y-101631502D01*
X135765509Y-101854000D01*
X135771001Y-101909761D01*
X135771000Y-105864115D01*
X135667995Y-106018273D01*
X135562686Y-106272510D01*
X135509000Y-106542408D01*
X135509000Y-106817592D01*
X135562686Y-107087490D01*
X135667995Y-107341727D01*
X135820880Y-107570535D01*
X136015465Y-107765120D01*
X136244273Y-107918005D01*
X136498510Y-108023314D01*
X136768408Y-108077000D01*
X137043592Y-108077000D01*
X137313490Y-108023314D01*
X137567727Y-107918005D01*
X137796535Y-107765120D01*
X137991120Y-107570535D01*
X138144005Y-107341727D01*
X138249314Y-107087490D01*
X138303000Y-106817592D01*
X138303000Y-106542408D01*
X138249314Y-106272510D01*
X138144005Y-106018273D01*
X138041000Y-105864116D01*
X138041000Y-102324131D01*
X141195647Y-99169485D01*
X141377490Y-99133314D01*
X141631727Y-99028005D01*
X141776284Y-98931415D01*
X144915001Y-102070134D01*
X144915000Y-110434248D01*
X144909509Y-110490000D01*
X144915000Y-110545751D01*
X144931423Y-110712498D01*
X144996324Y-110926446D01*
X145101716Y-111123623D01*
X145243551Y-111296449D01*
X145286864Y-111331995D01*
X146986013Y-113031146D01*
X147021551Y-113074449D01*
X147064854Y-113109987D01*
X147064856Y-113109989D01*
X147194377Y-113216284D01*
X147391553Y-113321676D01*
X147605501Y-113386577D01*
X147828000Y-113408491D01*
X147883752Y-113403000D01*
X168854249Y-113403000D01*
X168910000Y-113408491D01*
X168965751Y-113403000D01*
X168965752Y-113403000D01*
X169132499Y-113386577D01*
X169346447Y-113321676D01*
X169543623Y-113216284D01*
X169716449Y-113074449D01*
X169751996Y-113031135D01*
X174723647Y-108059485D01*
X174905490Y-108023314D01*
X175159727Y-107918005D01*
X175388535Y-107765120D01*
X175583120Y-107570535D01*
X175736005Y-107341727D01*
X175814605Y-107151971D01*
X195714630Y-127051997D01*
X195715001Y-127055761D01*
X195715001Y-128111312D01*
X195648382Y-128155825D01*
X195385825Y-128418382D01*
X195179534Y-128727118D01*
X195037439Y-129070166D01*
X194965000Y-129434344D01*
X194965000Y-129805656D01*
X195037439Y-130169834D01*
X195179534Y-130512882D01*
X195385825Y-130821618D01*
X195648382Y-131084175D01*
X195957118Y-131290466D01*
X196300166Y-131432561D01*
X196664344Y-131505000D01*
X197035656Y-131505000D01*
X197399834Y-131432561D01*
X197742882Y-131290466D01*
X198051618Y-131084175D01*
X198314175Y-130821618D01*
X198520466Y-130512882D01*
X198662561Y-130169834D01*
X198735000Y-129805656D01*
X198735000Y-129434344D01*
X198662561Y-129070166D01*
X198520466Y-128727118D01*
X198314175Y-128418382D01*
X198051618Y-128155825D01*
X197985000Y-128111312D01*
X197985000Y-127451750D01*
X198007167Y-127424740D01*
X198112559Y-127227564D01*
X198177460Y-127013616D01*
X198199374Y-126791117D01*
X198177460Y-126568618D01*
X198112559Y-126354670D01*
X198007167Y-126157494D01*
X197900872Y-126027973D01*
X197900860Y-126027961D01*
X197865331Y-125984669D01*
X197822039Y-125949140D01*
X150520809Y-78647911D01*
X175595000Y-78647911D01*
X175595000Y-78832089D01*
X175630932Y-79012729D01*
X175701414Y-79182889D01*
X175803738Y-79336028D01*
X175933972Y-79466262D01*
X176087111Y-79568586D01*
X176257271Y-79639068D01*
X176437911Y-79675000D01*
X176622089Y-79675000D01*
X176802729Y-79639068D01*
X176972889Y-79568586D01*
X177126028Y-79466262D01*
X177256262Y-79336028D01*
X177358586Y-79182889D01*
X177429068Y-79012729D01*
X177465000Y-78832089D01*
X177465000Y-78647911D01*
X177429068Y-78467271D01*
X177358586Y-78297111D01*
X177256262Y-78143972D01*
X177126028Y-78013738D01*
X176972889Y-77911414D01*
X176802729Y-77840932D01*
X176622089Y-77805000D01*
X176437911Y-77805000D01*
X176257271Y-77840932D01*
X176087111Y-77911414D01*
X175933972Y-78013738D01*
X175803738Y-78143972D01*
X175701414Y-78297111D01*
X175630932Y-78467271D01*
X175595000Y-78647911D01*
X150520809Y-78647911D01*
X148579762Y-76706865D01*
X148544215Y-76663551D01*
X148371389Y-76521716D01*
X148174213Y-76416324D01*
X147960265Y-76351423D01*
X147793518Y-76335000D01*
X147793517Y-76335000D01*
X147737766Y-76329509D01*
X147682015Y-76335000D01*
X140170132Y-76335000D01*
X136087540Y-72252408D01*
X139573000Y-72252408D01*
X139573000Y-72527592D01*
X139626686Y-72797490D01*
X139731995Y-73051727D01*
X139884880Y-73280535D01*
X140079465Y-73475120D01*
X140308273Y-73628005D01*
X140562510Y-73733314D01*
X140832408Y-73787000D01*
X141107592Y-73787000D01*
X141377490Y-73733314D01*
X141631727Y-73628005D01*
X141860535Y-73475120D01*
X142055120Y-73280535D01*
X142208005Y-73051727D01*
X142313314Y-72797490D01*
X142349485Y-72615646D01*
X159222724Y-55742408D01*
X176911000Y-55742408D01*
X176911000Y-56017592D01*
X176964686Y-56287490D01*
X177069995Y-56541727D01*
X177222880Y-56770535D01*
X177417465Y-56965120D01*
X177646273Y-57118005D01*
X177900510Y-57223314D01*
X178082354Y-57259485D01*
X190635001Y-69812133D01*
X190635000Y-71574115D01*
X190531995Y-71728273D01*
X190426686Y-71982510D01*
X190373000Y-72252408D01*
X190373000Y-72527592D01*
X190426686Y-72797490D01*
X190531995Y-73051727D01*
X190684880Y-73280535D01*
X190879465Y-73475120D01*
X191108273Y-73628005D01*
X191362510Y-73733314D01*
X191632408Y-73787000D01*
X191907592Y-73787000D01*
X192177490Y-73733314D01*
X192431727Y-73628005D01*
X192660535Y-73475120D01*
X192855120Y-73280535D01*
X193008005Y-73051727D01*
X193113314Y-72797490D01*
X193167000Y-72527592D01*
X193167000Y-72252408D01*
X193113314Y-71982510D01*
X193008005Y-71728273D01*
X192905000Y-71574116D01*
X192905000Y-69397751D01*
X192910491Y-69342000D01*
X192888577Y-69119501D01*
X192823676Y-68905553D01*
X192765292Y-68796324D01*
X192718284Y-68708377D01*
X192576449Y-68535551D01*
X192533141Y-68500009D01*
X179687485Y-55654354D01*
X179651314Y-55472510D01*
X179546005Y-55218273D01*
X179393120Y-54989465D01*
X179198535Y-54794880D01*
X178969727Y-54641995D01*
X178715490Y-54536686D01*
X178445592Y-54483000D01*
X178170408Y-54483000D01*
X177900510Y-54536686D01*
X177646273Y-54641995D01*
X177417465Y-54794880D01*
X177222880Y-54989465D01*
X177069995Y-55218273D01*
X176964686Y-55472510D01*
X176911000Y-55742408D01*
X159222724Y-55742408D01*
X161760133Y-53205000D01*
X189799869Y-53205000D01*
X194961928Y-58367060D01*
X194961928Y-59670000D01*
X194974188Y-59794482D01*
X195010498Y-59914180D01*
X195069463Y-60024494D01*
X195148815Y-60121185D01*
X195245506Y-60200537D01*
X195355820Y-60259502D01*
X195475518Y-60295812D01*
X195600000Y-60308072D01*
X198100000Y-60308072D01*
X198224482Y-60295812D01*
X198344180Y-60259502D01*
X198454494Y-60200537D01*
X198551185Y-60121185D01*
X198560001Y-60110442D01*
X198560002Y-76694866D01*
X191544354Y-83710515D01*
X191362510Y-83746686D01*
X191108273Y-83851995D01*
X190879465Y-84004880D01*
X190684880Y-84199465D01*
X190531995Y-84428273D01*
X190426686Y-84682510D01*
X190373000Y-84952408D01*
X190373000Y-85227592D01*
X190426686Y-85497490D01*
X190531995Y-85751727D01*
X190635001Y-85905886D01*
X190635000Y-96974115D01*
X190531995Y-97128273D01*
X190426686Y-97382510D01*
X190373000Y-97652408D01*
X190373000Y-97927592D01*
X190426686Y-98197490D01*
X190531995Y-98451727D01*
X190684880Y-98680535D01*
X190879465Y-98875120D01*
X191108273Y-99028005D01*
X191362510Y-99133314D01*
X191632408Y-99187000D01*
X191907592Y-99187000D01*
X192177490Y-99133314D01*
X192431727Y-99028005D01*
X192660535Y-98875120D01*
X192855120Y-98680535D01*
X193008005Y-98451727D01*
X193113314Y-98197490D01*
X193167000Y-97927592D01*
X193167000Y-97652408D01*
X193113314Y-97382510D01*
X193008005Y-97128273D01*
X192905000Y-96974116D01*
X192905000Y-91347911D01*
X198455000Y-91347911D01*
X198455000Y-91532089D01*
X198490932Y-91712729D01*
X198561414Y-91882889D01*
X198663738Y-92036028D01*
X198793972Y-92166262D01*
X198947111Y-92268586D01*
X199117271Y-92339068D01*
X199297911Y-92375000D01*
X199482089Y-92375000D01*
X199662729Y-92339068D01*
X199832889Y-92268586D01*
X199986028Y-92166262D01*
X200116262Y-92036028D01*
X200218586Y-91882889D01*
X200289068Y-91712729D01*
X200325000Y-91532089D01*
X200325000Y-91347911D01*
X200289068Y-91167271D01*
X200218586Y-90997111D01*
X200116262Y-90843972D01*
X199986028Y-90713738D01*
X199832889Y-90611414D01*
X199662729Y-90540932D01*
X199482089Y-90505000D01*
X199297911Y-90505000D01*
X199117271Y-90540932D01*
X198947111Y-90611414D01*
X198793972Y-90713738D01*
X198663738Y-90843972D01*
X198561414Y-90997111D01*
X198490932Y-91167271D01*
X198455000Y-91347911D01*
X192905000Y-91347911D01*
X192905000Y-85905884D01*
X193008005Y-85751727D01*
X193113314Y-85497490D01*
X193149485Y-85315646D01*
X200458142Y-78006990D01*
X200501450Y-77971448D01*
X200643285Y-77798622D01*
X200748677Y-77601446D01*
X200813578Y-77387498D01*
X200830001Y-77220751D01*
X200835492Y-77164999D01*
X200830001Y-77109247D01*
X200830001Y-55050753D01*
X200835492Y-54995001D01*
X200813578Y-54772502D01*
X200748677Y-54558554D01*
X200643285Y-54361378D01*
X200603485Y-54312882D01*
X200501450Y-54188552D01*
X200458141Y-54153010D01*
X198961996Y-52656865D01*
X198926449Y-52613551D01*
X198753623Y-52471716D01*
X198556447Y-52366324D01*
X198376566Y-52311757D01*
X198314175Y-52218382D01*
X198051618Y-51955825D01*
X197742882Y-51749534D01*
X197399834Y-51607439D01*
X197035656Y-51535000D01*
X196664344Y-51535000D01*
X196300166Y-51607439D01*
X195957118Y-51749534D01*
X195648382Y-51955825D01*
X195385825Y-52218382D01*
X195179534Y-52527118D01*
X195037439Y-52870166D01*
X194965000Y-53234344D01*
X194965000Y-53605656D01*
X195037439Y-53969834D01*
X195179534Y-54312882D01*
X195385825Y-54621618D01*
X195648382Y-54884175D01*
X195957118Y-55090466D01*
X196300166Y-55232561D01*
X196664344Y-55305000D01*
X197035656Y-55305000D01*
X197399834Y-55232561D01*
X197742882Y-55090466D01*
X198008113Y-54913244D01*
X198560001Y-55465133D01*
X198560001Y-56729557D01*
X198551185Y-56718815D01*
X198454494Y-56639463D01*
X198344180Y-56580498D01*
X198224482Y-56544188D01*
X198100000Y-56531928D01*
X196337060Y-56531928D01*
X191111996Y-51306865D01*
X191076449Y-51263551D01*
X190903623Y-51121716D01*
X190706447Y-51016324D01*
X190492499Y-50951423D01*
X190325752Y-50935000D01*
X190325751Y-50935000D01*
X190270000Y-50929509D01*
X190214249Y-50935000D01*
X161345752Y-50935000D01*
X161290000Y-50929509D01*
X161067501Y-50951423D01*
X160853553Y-51016324D01*
X160656377Y-51121716D01*
X160526856Y-51228011D01*
X160526855Y-51228012D01*
X160483551Y-51263551D01*
X160448013Y-51306854D01*
X140744354Y-71010515D01*
X140562510Y-71046686D01*
X140308273Y-71151995D01*
X140079465Y-71304880D01*
X139884880Y-71499465D01*
X139731995Y-71728273D01*
X139626686Y-71982510D01*
X139573000Y-72252408D01*
X136087540Y-72252408D01*
X133215000Y-69379869D01*
X133215000Y-65839884D01*
X133318005Y-65685727D01*
X133423314Y-65431490D01*
X133459485Y-65249646D01*
X141459055Y-57250077D01*
X141594408Y-57277000D01*
X141869592Y-57277000D01*
X142139490Y-57223314D01*
X142393727Y-57118005D01*
X142622535Y-56965120D01*
X142817120Y-56770535D01*
X142970005Y-56541727D01*
X143075314Y-56287490D01*
X143129000Y-56017592D01*
X143129000Y-55742408D01*
X143075314Y-55472510D01*
X142970005Y-55218273D01*
X142817120Y-54989465D01*
X142622535Y-54794880D01*
X142393727Y-54641995D01*
X142139490Y-54536686D01*
X141869592Y-54483000D01*
X141594408Y-54483000D01*
X141324510Y-54536686D01*
X141070273Y-54641995D01*
X140841465Y-54794880D01*
X140819804Y-54816541D01*
X140787553Y-54826324D01*
X140590377Y-54931716D01*
X140460856Y-55038012D01*
X132080000Y-63418869D01*
X128857996Y-60196865D01*
X128822449Y-60153551D01*
X128649623Y-60011716D01*
X128452447Y-59906324D01*
X128238499Y-59841423D01*
X128071752Y-59825000D01*
X128071751Y-59825000D01*
X128016000Y-59819509D01*
X127960249Y-59825000D01*
X113847751Y-59825000D01*
X113792000Y-59819509D01*
X113736248Y-59825000D01*
X113569501Y-59841423D01*
X113355553Y-59906324D01*
X113158377Y-60011716D01*
X112985551Y-60153551D01*
X112950009Y-60196859D01*
X100104354Y-73042515D01*
X99922510Y-73078686D01*
X99668273Y-73183995D01*
X99439465Y-73336880D01*
X99244880Y-73531465D01*
X99091995Y-73760273D01*
X98986686Y-74014510D01*
X98933000Y-74284408D01*
X78130000Y-74284408D01*
X78130000Y-69757911D01*
X98125000Y-69757911D01*
X98125000Y-69942089D01*
X98160932Y-70122729D01*
X98231414Y-70292889D01*
X98333738Y-70446028D01*
X98463972Y-70576262D01*
X98617111Y-70678586D01*
X98787271Y-70749068D01*
X98967911Y-70785000D01*
X99152089Y-70785000D01*
X99332729Y-70749068D01*
X99502889Y-70678586D01*
X99656028Y-70576262D01*
X99786262Y-70446028D01*
X99888586Y-70292889D01*
X99959068Y-70122729D01*
X99995000Y-69942089D01*
X99995000Y-69757911D01*
X99959068Y-69577271D01*
X99888586Y-69407111D01*
X99786262Y-69253972D01*
X99656028Y-69123738D01*
X99502889Y-69021414D01*
X99332729Y-68950932D01*
X99152089Y-68915000D01*
X98967911Y-68915000D01*
X98787271Y-68950932D01*
X98617111Y-69021414D01*
X98463972Y-69123738D01*
X98333738Y-69253972D01*
X98231414Y-69407111D01*
X98160932Y-69577271D01*
X98125000Y-69757911D01*
X78130000Y-69757911D01*
X78130000Y-43087911D01*
X79075000Y-43087911D01*
X79075000Y-43272089D01*
X79110932Y-43452729D01*
X79181414Y-43622889D01*
X79283738Y-43776028D01*
X79413972Y-43906262D01*
X79567111Y-44008586D01*
X79737271Y-44079068D01*
X79917911Y-44115000D01*
X80102089Y-44115000D01*
X80282729Y-44079068D01*
X80452889Y-44008586D01*
X80606028Y-43906262D01*
X80736262Y-43776028D01*
X80838586Y-43622889D01*
X80909068Y-43452729D01*
X80945000Y-43272089D01*
X80945000Y-43087911D01*
X109555000Y-43087911D01*
X109555000Y-43272089D01*
X109590932Y-43452729D01*
X109661414Y-43622889D01*
X109763738Y-43776028D01*
X109893972Y-43906262D01*
X110047111Y-44008586D01*
X110217271Y-44079068D01*
X110397911Y-44115000D01*
X110582089Y-44115000D01*
X110762729Y-44079068D01*
X110932889Y-44008586D01*
X111086028Y-43906262D01*
X111216262Y-43776028D01*
X111318586Y-43622889D01*
X111389068Y-43452729D01*
X111425000Y-43272089D01*
X111425000Y-43087911D01*
X141305000Y-43087911D01*
X141305000Y-43272089D01*
X141340932Y-43452729D01*
X141411414Y-43622889D01*
X141513738Y-43776028D01*
X141643972Y-43906262D01*
X141797111Y-44008586D01*
X141967271Y-44079068D01*
X142147911Y-44115000D01*
X142332089Y-44115000D01*
X142512729Y-44079068D01*
X142682889Y-44008586D01*
X142836028Y-43906262D01*
X142966262Y-43776028D01*
X143068586Y-43622889D01*
X143139068Y-43452729D01*
X143175000Y-43272089D01*
X143175000Y-43087911D01*
X171785000Y-43087911D01*
X171785000Y-43272089D01*
X171820932Y-43452729D01*
X171891414Y-43622889D01*
X171993738Y-43776028D01*
X172123972Y-43906262D01*
X172277111Y-44008586D01*
X172447271Y-44079068D01*
X172627911Y-44115000D01*
X172812089Y-44115000D01*
X172992729Y-44079068D01*
X173162889Y-44008586D01*
X173316028Y-43906262D01*
X173446262Y-43776028D01*
X173548586Y-43622889D01*
X173619068Y-43452729D01*
X173655000Y-43272089D01*
X173655000Y-43087911D01*
X198455000Y-43087911D01*
X198455000Y-43272089D01*
X198490932Y-43452729D01*
X198561414Y-43622889D01*
X198663738Y-43776028D01*
X198793972Y-43906262D01*
X198947111Y-44008586D01*
X199117271Y-44079068D01*
X199297911Y-44115000D01*
X199482089Y-44115000D01*
X199662729Y-44079068D01*
X199832889Y-44008586D01*
X199986028Y-43906262D01*
X200116262Y-43776028D01*
X200218586Y-43622889D01*
X200289068Y-43452729D01*
X200325000Y-43272089D01*
X200325000Y-43087911D01*
X200289068Y-42907271D01*
X200218586Y-42737111D01*
X200116262Y-42583972D01*
X199986028Y-42453738D01*
X199832889Y-42351414D01*
X199662729Y-42280932D01*
X199482089Y-42245000D01*
X199297911Y-42245000D01*
X199117271Y-42280932D01*
X198947111Y-42351414D01*
X198793972Y-42453738D01*
X198663738Y-42583972D01*
X198561414Y-42737111D01*
X198490932Y-42907271D01*
X198455000Y-43087911D01*
X173655000Y-43087911D01*
X173619068Y-42907271D01*
X173548586Y-42737111D01*
X173446262Y-42583972D01*
X173316028Y-42453738D01*
X173162889Y-42351414D01*
X172992729Y-42280932D01*
X172812089Y-42245000D01*
X172627911Y-42245000D01*
X172447271Y-42280932D01*
X172277111Y-42351414D01*
X172123972Y-42453738D01*
X171993738Y-42583972D01*
X171891414Y-42737111D01*
X171820932Y-42907271D01*
X171785000Y-43087911D01*
X143175000Y-43087911D01*
X143139068Y-42907271D01*
X143068586Y-42737111D01*
X142966262Y-42583972D01*
X142836028Y-42453738D01*
X142682889Y-42351414D01*
X142512729Y-42280932D01*
X142332089Y-42245000D01*
X142147911Y-42245000D01*
X141967271Y-42280932D01*
X141797111Y-42351414D01*
X141643972Y-42453738D01*
X141513738Y-42583972D01*
X141411414Y-42737111D01*
X141340932Y-42907271D01*
X141305000Y-43087911D01*
X111425000Y-43087911D01*
X111389068Y-42907271D01*
X111318586Y-42737111D01*
X111216262Y-42583972D01*
X111086028Y-42453738D01*
X110932889Y-42351414D01*
X110762729Y-42280932D01*
X110582089Y-42245000D01*
X110397911Y-42245000D01*
X110217271Y-42280932D01*
X110047111Y-42351414D01*
X109893972Y-42453738D01*
X109763738Y-42583972D01*
X109661414Y-42737111D01*
X109590932Y-42907271D01*
X109555000Y-43087911D01*
X80945000Y-43087911D01*
X80909068Y-42907271D01*
X80838586Y-42737111D01*
X80736262Y-42583972D01*
X80606028Y-42453738D01*
X80452889Y-42351414D01*
X80282729Y-42280932D01*
X80102089Y-42245000D01*
X79917911Y-42245000D01*
X79737271Y-42280932D01*
X79567111Y-42351414D01*
X79413972Y-42453738D01*
X79283738Y-42583972D01*
X79181414Y-42737111D01*
X79110932Y-42907271D01*
X79075000Y-43087911D01*
X78130000Y-43087911D01*
X78130000Y-41300000D01*
X201270000Y-41300000D01*
X201270001Y-142850000D01*
M02*
