G04 #@! TF.GenerationSoftware,KiCad,Pcbnew,(5.1.4)-1*
G04 #@! TF.CreationDate,2020-05-14T00:19:35-04:00*
G04 #@! TF.ProjectId,Crossover circuit,43726f73-736f-4766-9572-206369726375,rev?*
G04 #@! TF.SameCoordinates,Original*
G04 #@! TF.FileFunction,Soldermask,Top*
G04 #@! TF.FilePolarity,Negative*
%FSLAX46Y46*%
G04 Gerber Fmt 4.6, Leading zero omitted, Abs format (unit mm)*
G04 Created by KiCad (PCBNEW (5.1.4)-1) date 2020-05-14 00:19:35*
%MOMM*%
%LPD*%
G04 APERTURE LIST*
%ADD10C,0.100000*%
G04 APERTURE END LIST*
D10*
G36*
X188959142Y-139934242D02*
G01*
X189107101Y-139995529D01*
X189240255Y-140084499D01*
X189353501Y-140197745D01*
X189442471Y-140330899D01*
X189503758Y-140478858D01*
X189535000Y-140635925D01*
X189535000Y-140796075D01*
X189503758Y-140953142D01*
X189442471Y-141101101D01*
X189353501Y-141234255D01*
X189240255Y-141347501D01*
X189107101Y-141436471D01*
X188959142Y-141497758D01*
X188802075Y-141529000D01*
X188641925Y-141529000D01*
X188484858Y-141497758D01*
X188336899Y-141436471D01*
X188203745Y-141347501D01*
X188090499Y-141234255D01*
X188001529Y-141101101D01*
X187940242Y-140953142D01*
X187909000Y-140796075D01*
X187909000Y-140635925D01*
X187940242Y-140478858D01*
X188001529Y-140330899D01*
X188090499Y-140197745D01*
X188203745Y-140084499D01*
X188336899Y-139995529D01*
X188484858Y-139934242D01*
X188641925Y-139903000D01*
X188802075Y-139903000D01*
X188959142Y-139934242D01*
X188959142Y-139934242D01*
G37*
G36*
X152637142Y-139172242D02*
G01*
X152785101Y-139233529D01*
X152918255Y-139322499D01*
X153031501Y-139435745D01*
X153120471Y-139568899D01*
X153181758Y-139716858D01*
X153213000Y-139873925D01*
X153213000Y-140034075D01*
X153181758Y-140191142D01*
X153120471Y-140339101D01*
X153031501Y-140472255D01*
X152918255Y-140585501D01*
X152785101Y-140674471D01*
X152637142Y-140735758D01*
X152480075Y-140767000D01*
X152319925Y-140767000D01*
X152162858Y-140735758D01*
X152014899Y-140674471D01*
X151881745Y-140585501D01*
X151768499Y-140472255D01*
X151679529Y-140339101D01*
X151618242Y-140191142D01*
X151587000Y-140034075D01*
X151587000Y-139873925D01*
X151618242Y-139716858D01*
X151679529Y-139568899D01*
X151768499Y-139435745D01*
X151881745Y-139322499D01*
X152014899Y-139233529D01*
X152162858Y-139172242D01*
X152319925Y-139141000D01*
X152480075Y-139141000D01*
X152637142Y-139172242D01*
X152637142Y-139172242D01*
G37*
G36*
X198151000Y-135921000D02*
G01*
X195549000Y-135921000D01*
X195549000Y-133319000D01*
X198151000Y-133319000D01*
X198151000Y-135921000D01*
X198151000Y-135921000D01*
G37*
G36*
X197229487Y-128368996D02*
G01*
X197466253Y-128467068D01*
X197466255Y-128467069D01*
X197679339Y-128609447D01*
X197860553Y-128790661D01*
X198002932Y-129003747D01*
X198101004Y-129240513D01*
X198151000Y-129491861D01*
X198151000Y-129748139D01*
X198101004Y-129999487D01*
X198002932Y-130236253D01*
X198002931Y-130236255D01*
X197860553Y-130449339D01*
X197679339Y-130630553D01*
X197466255Y-130772931D01*
X197466254Y-130772932D01*
X197466253Y-130772932D01*
X197229487Y-130871004D01*
X196978139Y-130921000D01*
X196721861Y-130921000D01*
X196470513Y-130871004D01*
X196233747Y-130772932D01*
X196233746Y-130772932D01*
X196233745Y-130772931D01*
X196020661Y-130630553D01*
X195839447Y-130449339D01*
X195697069Y-130236255D01*
X195697068Y-130236253D01*
X195598996Y-129999487D01*
X195549000Y-129748139D01*
X195549000Y-129491861D01*
X195598996Y-129240513D01*
X195697068Y-129003747D01*
X195839447Y-128790661D01*
X196020661Y-128609447D01*
X196233745Y-128467069D01*
X196233747Y-128467068D01*
X196470513Y-128368996D01*
X196721861Y-128319000D01*
X196978139Y-128319000D01*
X197229487Y-128368996D01*
X197229487Y-128368996D01*
G37*
G36*
X118093142Y-119868242D02*
G01*
X118241101Y-119929529D01*
X118374255Y-120018499D01*
X118487501Y-120131745D01*
X118576471Y-120264899D01*
X118637758Y-120412858D01*
X118669000Y-120569925D01*
X118669000Y-120730075D01*
X118637758Y-120887142D01*
X118576471Y-121035101D01*
X118487501Y-121168255D01*
X118374255Y-121281501D01*
X118241101Y-121370471D01*
X118093142Y-121431758D01*
X117936075Y-121463000D01*
X117775925Y-121463000D01*
X117618858Y-121431758D01*
X117470899Y-121370471D01*
X117337745Y-121281501D01*
X117224499Y-121168255D01*
X117135529Y-121035101D01*
X117074242Y-120887142D01*
X117043000Y-120730075D01*
X117043000Y-120569925D01*
X117074242Y-120412858D01*
X117135529Y-120264899D01*
X117224499Y-120131745D01*
X117337745Y-120018499D01*
X117470899Y-119929529D01*
X117618858Y-119868242D01*
X117775925Y-119837000D01*
X117936075Y-119837000D01*
X118093142Y-119868242D01*
X118093142Y-119868242D01*
G37*
G36*
X95741142Y-119868242D02*
G01*
X95889101Y-119929529D01*
X96022255Y-120018499D01*
X96135501Y-120131745D01*
X96224471Y-120264899D01*
X96285758Y-120412858D01*
X96317000Y-120569925D01*
X96317000Y-120730075D01*
X96285758Y-120887142D01*
X96224471Y-121035101D01*
X96135501Y-121168255D01*
X96022255Y-121281501D01*
X95889101Y-121370471D01*
X95741142Y-121431758D01*
X95584075Y-121463000D01*
X95423925Y-121463000D01*
X95266858Y-121431758D01*
X95118899Y-121370471D01*
X94985745Y-121281501D01*
X94872499Y-121168255D01*
X94783529Y-121035101D01*
X94722242Y-120887142D01*
X94691000Y-120730075D01*
X94691000Y-120569925D01*
X94722242Y-120412858D01*
X94783529Y-120264899D01*
X94872499Y-120131745D01*
X94985745Y-120018499D01*
X95118899Y-119929529D01*
X95266858Y-119868242D01*
X95423925Y-119837000D01*
X95584075Y-119837000D01*
X95741142Y-119868242D01*
X95741142Y-119868242D01*
G37*
G36*
X174735142Y-105898242D02*
G01*
X174883101Y-105959529D01*
X175016255Y-106048499D01*
X175129501Y-106161745D01*
X175218471Y-106294899D01*
X175279758Y-106442858D01*
X175311000Y-106599925D01*
X175311000Y-106760075D01*
X175279758Y-106917142D01*
X175218471Y-107065101D01*
X175129501Y-107198255D01*
X175016255Y-107311501D01*
X174883101Y-107400471D01*
X174735142Y-107461758D01*
X174578075Y-107493000D01*
X174417925Y-107493000D01*
X174260858Y-107461758D01*
X174112899Y-107400471D01*
X173979745Y-107311501D01*
X173866499Y-107198255D01*
X173777529Y-107065101D01*
X173716242Y-106917142D01*
X173685000Y-106760075D01*
X173685000Y-106599925D01*
X173716242Y-106442858D01*
X173777529Y-106294899D01*
X173866499Y-106161745D01*
X173979745Y-106048499D01*
X174112899Y-105959529D01*
X174260858Y-105898242D01*
X174417925Y-105867000D01*
X174578075Y-105867000D01*
X174735142Y-105898242D01*
X174735142Y-105898242D01*
G37*
G36*
X137143142Y-105898242D02*
G01*
X137291101Y-105959529D01*
X137424255Y-106048499D01*
X137537501Y-106161745D01*
X137626471Y-106294899D01*
X137687758Y-106442858D01*
X137719000Y-106599925D01*
X137719000Y-106760075D01*
X137687758Y-106917142D01*
X137626471Y-107065101D01*
X137537501Y-107198255D01*
X137424255Y-107311501D01*
X137291101Y-107400471D01*
X137143142Y-107461758D01*
X136986075Y-107493000D01*
X136825925Y-107493000D01*
X136668858Y-107461758D01*
X136520899Y-107400471D01*
X136387745Y-107311501D01*
X136274499Y-107198255D01*
X136185529Y-107065101D01*
X136124242Y-106917142D01*
X136093000Y-106760075D01*
X136093000Y-106599925D01*
X136124242Y-106442858D01*
X136185529Y-106294899D01*
X136274499Y-106161745D01*
X136387745Y-106048499D01*
X136520899Y-105959529D01*
X136668858Y-105898242D01*
X136825925Y-105867000D01*
X136986075Y-105867000D01*
X137143142Y-105898242D01*
X137143142Y-105898242D01*
G37*
G36*
X89391142Y-105898242D02*
G01*
X89539101Y-105959529D01*
X89672255Y-106048499D01*
X89785501Y-106161745D01*
X89874471Y-106294899D01*
X89935758Y-106442858D01*
X89967000Y-106599925D01*
X89967000Y-106760075D01*
X89935758Y-106917142D01*
X89874471Y-107065101D01*
X89785501Y-107198255D01*
X89672255Y-107311501D01*
X89539101Y-107400471D01*
X89391142Y-107461758D01*
X89234075Y-107493000D01*
X89073925Y-107493000D01*
X88916858Y-107461758D01*
X88768899Y-107400471D01*
X88635745Y-107311501D01*
X88522499Y-107198255D01*
X88433529Y-107065101D01*
X88372242Y-106917142D01*
X88341000Y-106760075D01*
X88341000Y-106599925D01*
X88372242Y-106442858D01*
X88433529Y-106294899D01*
X88522499Y-106161745D01*
X88635745Y-106048499D01*
X88768899Y-105959529D01*
X88916858Y-105898242D01*
X89073925Y-105867000D01*
X89234075Y-105867000D01*
X89391142Y-105898242D01*
X89391142Y-105898242D01*
G37*
G36*
X152637142Y-105644242D02*
G01*
X152785101Y-105705529D01*
X152918255Y-105794499D01*
X153031501Y-105907745D01*
X153120471Y-106040899D01*
X153181758Y-106188858D01*
X153213000Y-106345925D01*
X153213000Y-106506075D01*
X153181758Y-106663142D01*
X153120471Y-106811101D01*
X153031501Y-106944255D01*
X152918255Y-107057501D01*
X152785101Y-107146471D01*
X152637142Y-107207758D01*
X152480075Y-107239000D01*
X152319925Y-107239000D01*
X152162858Y-107207758D01*
X152014899Y-107146471D01*
X151881745Y-107057501D01*
X151768499Y-106944255D01*
X151679529Y-106811101D01*
X151618242Y-106663142D01*
X151587000Y-106506075D01*
X151587000Y-106345925D01*
X151618242Y-106188858D01*
X151679529Y-106040899D01*
X151768499Y-105907745D01*
X151881745Y-105794499D01*
X152014899Y-105705529D01*
X152162858Y-105644242D01*
X152319925Y-105613000D01*
X152480075Y-105613000D01*
X152637142Y-105644242D01*
X152637142Y-105644242D01*
G37*
G36*
X192007142Y-97008242D02*
G01*
X192155101Y-97069529D01*
X192288255Y-97158499D01*
X192401501Y-97271745D01*
X192490471Y-97404899D01*
X192551758Y-97552858D01*
X192583000Y-97709925D01*
X192583000Y-97870075D01*
X192551758Y-98027142D01*
X192490471Y-98175101D01*
X192401501Y-98308255D01*
X192288255Y-98421501D01*
X192155101Y-98510471D01*
X192007142Y-98571758D01*
X191850075Y-98603000D01*
X191689925Y-98603000D01*
X191532858Y-98571758D01*
X191384899Y-98510471D01*
X191251745Y-98421501D01*
X191138499Y-98308255D01*
X191049529Y-98175101D01*
X190988242Y-98027142D01*
X190957000Y-97870075D01*
X190957000Y-97709925D01*
X190988242Y-97552858D01*
X191049529Y-97404899D01*
X191138499Y-97271745D01*
X191251745Y-97158499D01*
X191384899Y-97069529D01*
X191532858Y-97008242D01*
X191689925Y-96977000D01*
X191850075Y-96977000D01*
X192007142Y-97008242D01*
X192007142Y-97008242D01*
G37*
G36*
X141207142Y-97008242D02*
G01*
X141355101Y-97069529D01*
X141488255Y-97158499D01*
X141601501Y-97271745D01*
X141690471Y-97404899D01*
X141751758Y-97552858D01*
X141783000Y-97709925D01*
X141783000Y-97870075D01*
X141751758Y-98027142D01*
X141690471Y-98175101D01*
X141601501Y-98308255D01*
X141488255Y-98421501D01*
X141355101Y-98510471D01*
X141207142Y-98571758D01*
X141050075Y-98603000D01*
X140889925Y-98603000D01*
X140732858Y-98571758D01*
X140584899Y-98510471D01*
X140451745Y-98421501D01*
X140338499Y-98308255D01*
X140249529Y-98175101D01*
X140188242Y-98027142D01*
X140157000Y-97870075D01*
X140157000Y-97709925D01*
X140188242Y-97552858D01*
X140249529Y-97404899D01*
X140338499Y-97271745D01*
X140451745Y-97158499D01*
X140584899Y-97069529D01*
X140732858Y-97008242D01*
X140889925Y-96977000D01*
X141050075Y-96977000D01*
X141207142Y-97008242D01*
X141207142Y-97008242D01*
G37*
G36*
X82929487Y-93998996D02*
G01*
X83166253Y-94097068D01*
X83166255Y-94097069D01*
X83379339Y-94239447D01*
X83560553Y-94420661D01*
X83702932Y-94633747D01*
X83801004Y-94870513D01*
X83851000Y-95121861D01*
X83851000Y-95378139D01*
X83801004Y-95629487D01*
X83702932Y-95866253D01*
X83702931Y-95866255D01*
X83560553Y-96079339D01*
X83379339Y-96260553D01*
X83166255Y-96402931D01*
X83166254Y-96402932D01*
X83166253Y-96402932D01*
X82929487Y-96501004D01*
X82678139Y-96551000D01*
X82421861Y-96551000D01*
X82170513Y-96501004D01*
X81933747Y-96402932D01*
X81933746Y-96402932D01*
X81933745Y-96402931D01*
X81720661Y-96260553D01*
X81539447Y-96079339D01*
X81397069Y-95866255D01*
X81397068Y-95866253D01*
X81298996Y-95629487D01*
X81249000Y-95378139D01*
X81249000Y-95121861D01*
X81298996Y-94870513D01*
X81397068Y-94633747D01*
X81539447Y-94420661D01*
X81720661Y-94239447D01*
X81933745Y-94097069D01*
X81933747Y-94097068D01*
X82170513Y-93998996D01*
X82421861Y-93949000D01*
X82678139Y-93949000D01*
X82929487Y-93998996D01*
X82929487Y-93998996D01*
G37*
G36*
X132317142Y-91674242D02*
G01*
X132465101Y-91735529D01*
X132598255Y-91824499D01*
X132711501Y-91937745D01*
X132800471Y-92070899D01*
X132861758Y-92218858D01*
X132893000Y-92375925D01*
X132893000Y-92536075D01*
X132861758Y-92693142D01*
X132800471Y-92841101D01*
X132711501Y-92974255D01*
X132598255Y-93087501D01*
X132465101Y-93176471D01*
X132317142Y-93237758D01*
X132160075Y-93269000D01*
X131999925Y-93269000D01*
X131842858Y-93237758D01*
X131694899Y-93176471D01*
X131561745Y-93087501D01*
X131448499Y-92974255D01*
X131359529Y-92841101D01*
X131298242Y-92693142D01*
X131267000Y-92536075D01*
X131267000Y-92375925D01*
X131298242Y-92218858D01*
X131359529Y-92070899D01*
X131448499Y-91937745D01*
X131561745Y-91824499D01*
X131694899Y-91735529D01*
X131842858Y-91674242D01*
X131999925Y-91643000D01*
X132160075Y-91643000D01*
X132317142Y-91674242D01*
X132317142Y-91674242D01*
G37*
G36*
X83851000Y-91551000D02*
G01*
X81249000Y-91551000D01*
X81249000Y-88949000D01*
X83851000Y-88949000D01*
X83851000Y-91551000D01*
X83851000Y-91551000D01*
G37*
G36*
X192007142Y-84308242D02*
G01*
X192155101Y-84369529D01*
X192288255Y-84458499D01*
X192401501Y-84571745D01*
X192490471Y-84704899D01*
X192551758Y-84852858D01*
X192583000Y-85009925D01*
X192583000Y-85170075D01*
X192551758Y-85327142D01*
X192490471Y-85475101D01*
X192401501Y-85608255D01*
X192288255Y-85721501D01*
X192155101Y-85810471D01*
X192007142Y-85871758D01*
X191850075Y-85903000D01*
X191689925Y-85903000D01*
X191532858Y-85871758D01*
X191384899Y-85810471D01*
X191251745Y-85721501D01*
X191138499Y-85608255D01*
X191049529Y-85475101D01*
X190988242Y-85327142D01*
X190957000Y-85170075D01*
X190957000Y-85009925D01*
X190988242Y-84852858D01*
X191049529Y-84704899D01*
X191138499Y-84571745D01*
X191251745Y-84458499D01*
X191384899Y-84369529D01*
X191532858Y-84308242D01*
X191689925Y-84277000D01*
X191850075Y-84277000D01*
X192007142Y-84308242D01*
X192007142Y-84308242D01*
G37*
G36*
X141207142Y-84308242D02*
G01*
X141355101Y-84369529D01*
X141488255Y-84458499D01*
X141601501Y-84571745D01*
X141690471Y-84704899D01*
X141751758Y-84852858D01*
X141783000Y-85009925D01*
X141783000Y-85170075D01*
X141751758Y-85327142D01*
X141690471Y-85475101D01*
X141601501Y-85608255D01*
X141488255Y-85721501D01*
X141355101Y-85810471D01*
X141207142Y-85871758D01*
X141050075Y-85903000D01*
X140889925Y-85903000D01*
X140732858Y-85871758D01*
X140584899Y-85810471D01*
X140451745Y-85721501D01*
X140338499Y-85608255D01*
X140249529Y-85475101D01*
X140188242Y-85327142D01*
X140157000Y-85170075D01*
X140157000Y-85009925D01*
X140188242Y-84852858D01*
X140249529Y-84704899D01*
X140338499Y-84571745D01*
X140451745Y-84458499D01*
X140584899Y-84369529D01*
X140732858Y-84308242D01*
X140889925Y-84277000D01*
X141050075Y-84277000D01*
X141207142Y-84308242D01*
X141207142Y-84308242D01*
G37*
G36*
X141207142Y-71608242D02*
G01*
X141355101Y-71669529D01*
X141488255Y-71758499D01*
X141601501Y-71871745D01*
X141690471Y-72004899D01*
X141751758Y-72152858D01*
X141783000Y-72309925D01*
X141783000Y-72470075D01*
X141751758Y-72627142D01*
X141690471Y-72775101D01*
X141601501Y-72908255D01*
X141488255Y-73021501D01*
X141355101Y-73110471D01*
X141207142Y-73171758D01*
X141050075Y-73203000D01*
X140889925Y-73203000D01*
X140732858Y-73171758D01*
X140584899Y-73110471D01*
X140451745Y-73021501D01*
X140338499Y-72908255D01*
X140249529Y-72775101D01*
X140188242Y-72627142D01*
X140157000Y-72470075D01*
X140157000Y-72309925D01*
X140188242Y-72152858D01*
X140249529Y-72004899D01*
X140338499Y-71871745D01*
X140451745Y-71758499D01*
X140584899Y-71669529D01*
X140732858Y-71608242D01*
X140889925Y-71577000D01*
X141050075Y-71577000D01*
X141207142Y-71608242D01*
X141207142Y-71608242D01*
G37*
G36*
X192007142Y-71608242D02*
G01*
X192155101Y-71669529D01*
X192288255Y-71758499D01*
X192401501Y-71871745D01*
X192490471Y-72004899D01*
X192551758Y-72152858D01*
X192583000Y-72309925D01*
X192583000Y-72470075D01*
X192551758Y-72627142D01*
X192490471Y-72775101D01*
X192401501Y-72908255D01*
X192288255Y-73021501D01*
X192155101Y-73110471D01*
X192007142Y-73171758D01*
X191850075Y-73203000D01*
X191689925Y-73203000D01*
X191532858Y-73171758D01*
X191384899Y-73110471D01*
X191251745Y-73021501D01*
X191138499Y-72908255D01*
X191049529Y-72775101D01*
X190988242Y-72627142D01*
X190957000Y-72470075D01*
X190957000Y-72309925D01*
X190988242Y-72152858D01*
X191049529Y-72004899D01*
X191138499Y-71871745D01*
X191251745Y-71758499D01*
X191384899Y-71669529D01*
X191532858Y-71608242D01*
X191689925Y-71577000D01*
X191850075Y-71577000D01*
X192007142Y-71608242D01*
X192007142Y-71608242D01*
G37*
G36*
X132317142Y-64242242D02*
G01*
X132465101Y-64303529D01*
X132598255Y-64392499D01*
X132711501Y-64505745D01*
X132800471Y-64638899D01*
X132861758Y-64786858D01*
X132893000Y-64943925D01*
X132893000Y-65104075D01*
X132861758Y-65261142D01*
X132800471Y-65409101D01*
X132711501Y-65542255D01*
X132598255Y-65655501D01*
X132465101Y-65744471D01*
X132317142Y-65805758D01*
X132160075Y-65837000D01*
X131999925Y-65837000D01*
X131842858Y-65805758D01*
X131694899Y-65744471D01*
X131561745Y-65655501D01*
X131448499Y-65542255D01*
X131359529Y-65409101D01*
X131298242Y-65261142D01*
X131267000Y-65104075D01*
X131267000Y-64943925D01*
X131298242Y-64786858D01*
X131359529Y-64638899D01*
X131448499Y-64505745D01*
X131561745Y-64392499D01*
X131694899Y-64303529D01*
X131842858Y-64242242D01*
X131999925Y-64211000D01*
X132160075Y-64211000D01*
X132317142Y-64242242D01*
X132317142Y-64242242D01*
G37*
G36*
X123935142Y-63988242D02*
G01*
X124083101Y-64049529D01*
X124216255Y-64138499D01*
X124329501Y-64251745D01*
X124418471Y-64384899D01*
X124479758Y-64532858D01*
X124511000Y-64689925D01*
X124511000Y-64850075D01*
X124479758Y-65007142D01*
X124418471Y-65155101D01*
X124329501Y-65288255D01*
X124216255Y-65401501D01*
X124083101Y-65490471D01*
X123935142Y-65551758D01*
X123778075Y-65583000D01*
X123617925Y-65583000D01*
X123460858Y-65551758D01*
X123312899Y-65490471D01*
X123179745Y-65401501D01*
X123066499Y-65288255D01*
X122977529Y-65155101D01*
X122916242Y-65007142D01*
X122885000Y-64850075D01*
X122885000Y-64689925D01*
X122916242Y-64532858D01*
X122977529Y-64384899D01*
X123066499Y-64251745D01*
X123179745Y-64138499D01*
X123312899Y-64049529D01*
X123460858Y-63988242D01*
X123617925Y-63957000D01*
X123778075Y-63957000D01*
X123935142Y-63988242D01*
X123935142Y-63988242D01*
G37*
G36*
X198151000Y-59721000D02*
G01*
X195549000Y-59721000D01*
X195549000Y-57119000D01*
X198151000Y-57119000D01*
X198151000Y-59721000D01*
X198151000Y-59721000D01*
G37*
G36*
X141969142Y-55098242D02*
G01*
X142117101Y-55159529D01*
X142250255Y-55248499D01*
X142363501Y-55361745D01*
X142452471Y-55494899D01*
X142513758Y-55642858D01*
X142545000Y-55799925D01*
X142545000Y-55960075D01*
X142513758Y-56117142D01*
X142452471Y-56265101D01*
X142363501Y-56398255D01*
X142250255Y-56511501D01*
X142117101Y-56600471D01*
X141969142Y-56661758D01*
X141812075Y-56693000D01*
X141651925Y-56693000D01*
X141494858Y-56661758D01*
X141346899Y-56600471D01*
X141213745Y-56511501D01*
X141100499Y-56398255D01*
X141011529Y-56265101D01*
X140950242Y-56117142D01*
X140919000Y-55960075D01*
X140919000Y-55799925D01*
X140950242Y-55642858D01*
X141011529Y-55494899D01*
X141100499Y-55361745D01*
X141213745Y-55248499D01*
X141346899Y-55159529D01*
X141494858Y-55098242D01*
X141651925Y-55067000D01*
X141812075Y-55067000D01*
X141969142Y-55098242D01*
X141969142Y-55098242D01*
G37*
G36*
X178545142Y-55098242D02*
G01*
X178693101Y-55159529D01*
X178826255Y-55248499D01*
X178939501Y-55361745D01*
X179028471Y-55494899D01*
X179089758Y-55642858D01*
X179121000Y-55799925D01*
X179121000Y-55960075D01*
X179089758Y-56117142D01*
X179028471Y-56265101D01*
X178939501Y-56398255D01*
X178826255Y-56511501D01*
X178693101Y-56600471D01*
X178545142Y-56661758D01*
X178388075Y-56693000D01*
X178227925Y-56693000D01*
X178070858Y-56661758D01*
X177922899Y-56600471D01*
X177789745Y-56511501D01*
X177676499Y-56398255D01*
X177587529Y-56265101D01*
X177526242Y-56117142D01*
X177495000Y-55960075D01*
X177495000Y-55799925D01*
X177526242Y-55642858D01*
X177587529Y-55494899D01*
X177676499Y-55361745D01*
X177789745Y-55248499D01*
X177922899Y-55159529D01*
X178070858Y-55098242D01*
X178227925Y-55067000D01*
X178388075Y-55067000D01*
X178545142Y-55098242D01*
X178545142Y-55098242D01*
G37*
G36*
X100567142Y-54336242D02*
G01*
X100715101Y-54397529D01*
X100848255Y-54486499D01*
X100961501Y-54599745D01*
X101050471Y-54732899D01*
X101111758Y-54880858D01*
X101143000Y-55037925D01*
X101143000Y-55198075D01*
X101111758Y-55355142D01*
X101050471Y-55503101D01*
X100961501Y-55636255D01*
X100848255Y-55749501D01*
X100715101Y-55838471D01*
X100567142Y-55899758D01*
X100410075Y-55931000D01*
X100249925Y-55931000D01*
X100092858Y-55899758D01*
X99944899Y-55838471D01*
X99811745Y-55749501D01*
X99698499Y-55636255D01*
X99609529Y-55503101D01*
X99548242Y-55355142D01*
X99517000Y-55198075D01*
X99517000Y-55037925D01*
X99548242Y-54880858D01*
X99609529Y-54732899D01*
X99698499Y-54599745D01*
X99811745Y-54486499D01*
X99944899Y-54397529D01*
X100092858Y-54336242D01*
X100249925Y-54305000D01*
X100410075Y-54305000D01*
X100567142Y-54336242D01*
X100567142Y-54336242D01*
G37*
G36*
X197229487Y-52168996D02*
G01*
X197466253Y-52267068D01*
X197466255Y-52267069D01*
X197679339Y-52409447D01*
X197860553Y-52590661D01*
X198002932Y-52803747D01*
X198101004Y-53040513D01*
X198151000Y-53291861D01*
X198151000Y-53548139D01*
X198101004Y-53799487D01*
X198002932Y-54036253D01*
X198002931Y-54036255D01*
X197860553Y-54249339D01*
X197679339Y-54430553D01*
X197466255Y-54572931D01*
X197466254Y-54572932D01*
X197466253Y-54572932D01*
X197229487Y-54671004D01*
X196978139Y-54721000D01*
X196721861Y-54721000D01*
X196470513Y-54671004D01*
X196233747Y-54572932D01*
X196233746Y-54572932D01*
X196233745Y-54572931D01*
X196020661Y-54430553D01*
X195839447Y-54249339D01*
X195697069Y-54036255D01*
X195697068Y-54036253D01*
X195598996Y-53799487D01*
X195549000Y-53548139D01*
X195549000Y-53291861D01*
X195598996Y-53040513D01*
X195697068Y-52803747D01*
X195839447Y-52590661D01*
X196020661Y-52409447D01*
X196233745Y-52267069D01*
X196233747Y-52267068D01*
X196470513Y-52168996D01*
X196721861Y-52119000D01*
X196978139Y-52119000D01*
X197229487Y-52168996D01*
X197229487Y-52168996D01*
G37*
M02*
