M48
; DRILL file {KiCad (5.1.4)-1} date 2020-05-19 1:06:32 PM
; FORMAT={-:-/ absolute / inch / decimal}
; #@! TF.CreationDate,2020-05-19T13:06:32-04:00
; #@! TF.GenerationSoftware,Kicad,Pcbnew,(5.1.4)-1
; #@! TF.FileFunction,Plated,1,2,PTH
FMAT,2
INCH
T1C0.0118
T2C0.0394
T3C0.0512
%
G90
G05
T1
X7.85Y-3.6
X4.35Y-1.7
X3.9Y-2.75
X5.85Y-3.35
X3.15Y-4.3
X6.95Y-5.55
X3.15Y-1.7
X6.95Y-3.1
X4.3Y-5.55
X7.85Y-5.55
X5.6Y-5.55
X5.6Y-1.7
X6.95Y-4.7
X3.15Y-5.55
X7.85Y-1.7
X4.55Y-4.0
X3.15Y-3.05
X6.8Y-1.7
T2
X3.51Y-4.2
X5.39Y-4.2
X5.55Y-2.85
X7.55Y-2.85
X3.95Y-2.93
X4.87Y-2.55
X5.55Y-3.35
X7.55Y-3.35
X5.2Y-2.56
X5.2Y-3.64
X6.87Y-4.2
X7.43Y-5.54
X3.76Y-4.75
X4.64Y-4.75
X6.0Y-4.19
X6.0Y-5.51
X5.55Y-3.85
X7.55Y-3.85
X5.58Y-2.2
X7.02Y-2.2
T3
X3.25Y-3.5531
X3.25Y-3.75
X7.75Y-2.1031
X7.75Y-2.3
X7.75Y-5.1031
X7.75Y-5.3
T0
M30
